 <!DOCTYPE svg PUBLIC "-//W3C//DTD SVG 1.1//EN" "http://www.w3.org/Graphics/SVG/1.1/DTD/svg11.dtd">
<svg xmlns="http://www.w3.org/2000/svg" width="3779.5276px" height="3779.5276px" id="svgBatik" viewBox="0 0 3779.5276 3779.5276">
<defs/>
<g transform="translate(1719.366162 1719.7638)">
<g transform="scale(3.4015748400000003) " id="mtf0">
<path d="m 47.671118,5.1272611 c -0.14137,0.002 -0.28779,0.0106 -0.43974,0.0259 -5.08501,0.86446 -4.09406,7.8403699 -8.61573,9.9678299 -3.11751,3.04484 -8.55477,4.71193 -9.4169,9.44079 l 0.52504,0.3591 0.49484,0.19382 c 2.71977,-1.02695 5.7986,-3.02341 6.74622,-5.65996 2.05362,-1.12359 6.04351,-7.15627 7.39771,-3.3225 -1.49533,2.99129 2.01317,7.86634 4.37059,3.96437 -0.90262,-2.93947 0.4994,-6.03793 3.67695,-3.3318 3.88094,1.32219 7.30034,7.11698 11.6787,4.70513 0.9537,-4.33273 -7.49405,-4.04608 -9.17064,-8.19589 -3.42207,-2.04068 -2.86458,-8.2086699 -7.24704,-8.1467699 z m -3.24152,27.2683099 c -1.61391,0.0126 -3.139,0.9711 -1.66108,3.10246 0.33575,0.0461 1.79793,-0.29846 3.24783,0.17025 2.18542,-2.08615 0.24236,-3.287 -1.58675,-3.27271 z m 10.81878,2.19907 c -1.62223,0.0646 -3.08125,1.9254 -1.29368,4.02178 1.44288,1.70903 5.55694,0.82633 3.72407,-1.86088 -0.425,-1.59175 -1.45705,-2.19964 -2.43039,-2.1609 z m 28.39872,1.03448 c -2.13917,-0.0895 -1.83663,6.12972 0.83966,7.29018 4.26705,2.64658 -0.27633,4.85752 -3.36796,3.93682 -3.88344,-0.24727 -2.35392,2.86296 0.75238,2.51237 3.85144,-0.63956 6.35612,3.79957 2.06366,5.27829 0.58933,2.94145 -8.12165,5.56153 -3.6212,8.21913 0.0827,0.3413 0.0629,0.87968 0.76334,0.0345 3.79568,-2.64558 5.457,-7.60085 10.18621,-9.06078 3.54666,0.19295 5.09277,-3.76053 2.29365,-6.46943 -3.33521,-3.14564 -5.68782,-7.03457 -8.2616,-10.76833 -0.65493,-0.66371 -1.20417,-0.95417 -1.64814,-0.97276 z m -71.354555,0.34549 c -1.82222,0.0602 -2.11645,2.85741 -1.62524,4.81366 -0.47761,4.40838 -8.6996305,6.4964 -4.4538905,11.05442 4.1673605,2.20931 4.3406905,7.86175 8.3761105,9.98641 4.70745,1.70867 0.85452,-2.82395 0.15897,-4.37059 -3.45027,-2.74518 -1.3401,-7.76025 3.21298,-7.14448 2.86878,-2.89294 -4.10888,-3.52548 -5.97028,-3.32449 -3.0167905,-3.53083 4.39728,-7.01874 2.2077,-10.34319 -0.76612,-0.49086 -1.39613,-0.68858 -1.90635,-0.67174 z m 23.308925,0.47725 c -2.03052,-0.041 -4.25703,1.16465 -2.68495,3.6514 1.22045,0.77579 2.91631,0.88199 4.19303,0.17723 2.35688,-2.49975 0.52244,-3.78759 -1.50808,-3.82863 z m 27.6606,2.75896 c -2.51934,-0.01 -5.5819,2.49684 -3.10943,5.63773 1.49003,1.78472 4.76524,-0.5413 5.68353,-2.02217 0.43274,-2.56948 -0.95914,-3.6094 -2.5741,-3.61556 z m -15.05296,4.90526 c -2.90562,0.0647 -6.29476,3.76742 -1.87581,5.73132 2.16206,1.41867 5.92787,0.66687 4.82095,-2.59667 -0.22259,-2.33014 -1.52612,-3.16624 -2.94514,-3.13465 z m -14.31154,1.75003 c -2.43821,-0.0112 -6.89424,2.61607 -2.79911,4.16117 0.6086,1.36671 2.42542,-2.70553 3.69653,-1.82338 1.00293,-1.69733 0.29334,-2.33231 -0.89742,-2.33779 z m 31.8991,3.3142 c -2.102,-0.0607 -4.38668,1.00463 -1.91597,3.22061 0.79224,0.52926 1.84177,0.60174 2.7354,0.31396 3.20181,-2.28735 1.28258,-3.4739 -0.81943,-3.53457 z m -30.58915,6.87532 c -1.93638,0.0409 -4.36293,1.5354 -2.72245,3.77718 1.29176,0.0175 2.71535,0.24941 3.89301,-0.42747 1.65539,-2.31136 0.54075,-3.30599 -0.9847,-3.34904 -0.0613,-0.002 -0.12339,-0.002 -0.18586,-8e-4 z m 25.6215,2.9103 c -2.23661,0.0157 -4.9696,2.69226 -1.94185,4.9557 1.57371,1.3878 4.12616,0.11049 4.13296,-1.92758 0.16211,-2.2085 -0.93642,-3.03695 -2.19111,-3.02812 z m 22.77194,3.27305 c -0.007,0.01 -0.0123,0.0204 -0.0152,0.0315 0.002,0.002 0.004,0.003 0.005,0.004 0.003,-0.007 0.006,-0.0204 0.01,-0.0358 z m -42.57185,1.18383 c -0.94656,0.007 -1.52471,0.57391 -0.45269,2.17219 0.0781,0.43777 0.58683,0.65686 0.98869,0.6246 4.42173,-0.78326 1.27109,-2.8101 -0.536,-2.79679 z m 11.57581,2.28801 c -1.61697,0.015 -3.03409,1.11868 -1.57778,3.9408 0.79166,0.25066 1.61128,0.71591 2.46823,0.51111 3.91623,-2.44838 1.3254,-4.47247 -0.89045,-4.45191 z m 11.30864,13.504061 c -2.82677,-0.0653 -4.29102,4.85382 -6.76945,6.0559 -4.32295,3.04365 -3.61095,-2.36608 -5.00748,-4.41772 -3.86143,-0.87509 -2.59247,2.86227 -2.3212,4.77085 -3.12941,3.83302 -7.02949,-1.51498 -8.54769,-4.28829 -1.29074,-1.06044 -2.35112,-1.04959 -3.02779,-0.51907 -0.0478,0.1237 -0.11833,0.2411 -0.22435,0.30468 -0.0401,0.024 -0.0828,0.0427 -0.12611,0.0604 -0.84312,1.15625 -0.59398,3.40314 1.42378,4.42104 3.0471,3.78936 7.65649,5.39255 10.75738,9.09065 3.14956,1.27475 4.79155,-3.68723 7.15212,-5.59159 2.01293,-4.0341 9.16008,-4.15257 8.41659,-9.28249 -0.63201,-0.40921 -1.20232,-0.59228 -1.7258,-0.60436 z"/>
</g>
</g>
<g transform="translate(1076.366162 1719.7638)">
<g transform="scale(3.4015748400000003) " id="mtf1">
<path d="m 47.671118,5.1272611 c -0.14137,0.002 -0.28779,0.0106 -0.43974,0.0259 -5.08501,0.86446 -4.09406,7.8403699 -8.61573,9.9678299 -3.11751,3.04484 -8.55477,4.71193 -9.4169,9.44079 l 0.52504,0.3591 0.49484,0.19382 c 2.71977,-1.02695 5.7986,-3.02341 6.74622,-5.65996 2.05362,-1.12359 6.04351,-7.15627 7.39771,-3.3225 -1.49533,2.99129 2.01317,7.86634 4.37059,3.96437 -0.90262,-2.93947 0.4994,-6.03793 3.67695,-3.3318 3.88094,1.32219 7.30034,7.11698 11.6787,4.70513 0.9537,-4.33273 -7.49405,-4.04608 -9.17064,-8.19589 -3.42207,-2.04068 -2.86458,-8.2086699 -7.24704,-8.1467699 z m -3.24152,27.2683099 c -1.61391,0.0126 -3.139,0.9711 -1.66108,3.10246 0.33575,0.0461 1.79793,-0.29846 3.24783,0.17025 2.18542,-2.08615 0.24236,-3.287 -1.58675,-3.27271 z m 10.81878,2.19907 c -1.62223,0.0646 -3.08125,1.9254 -1.29368,4.02178 1.44288,1.70903 5.55694,0.82633 3.72407,-1.86088 -0.425,-1.59175 -1.45705,-2.19964 -2.43039,-2.1609 z m 28.39872,1.03448 c -2.13917,-0.0895 -1.83663,6.12972 0.83966,7.29018 4.26705,2.64658 -0.27633,4.85752 -3.36796,3.93682 -3.88344,-0.24727 -2.35392,2.86296 0.75238,2.51237 3.85144,-0.63956 6.35612,3.79957 2.06366,5.27829 0.58933,2.94145 -8.12165,5.56153 -3.6212,8.21913 0.0827,0.3413 0.0629,0.87968 0.76334,0.0345 3.79568,-2.64558 5.457,-7.60085 10.18621,-9.06078 3.54666,0.19295 5.09277,-3.76053 2.29365,-6.46943 -3.33521,-3.14564 -5.68782,-7.03457 -8.2616,-10.76833 -0.65493,-0.66371 -1.20417,-0.95417 -1.64814,-0.97276 z m -71.354555,0.34549 c -1.82222,0.0602 -2.11645,2.85741 -1.62524,4.81366 -0.47761,4.40838 -8.6996305,6.4964 -4.4538905,11.05442 4.1673605,2.20931 4.3406905,7.86175 8.3761105,9.98641 4.70745,1.70867 0.85452,-2.82395 0.15897,-4.37059 -3.45027,-2.74518 -1.3401,-7.76025 3.21298,-7.14448 2.86878,-2.89294 -4.10888,-3.52548 -5.97028,-3.32449 -3.0167905,-3.53083 4.39728,-7.01874 2.2077,-10.34319 -0.76612,-0.49086 -1.39613,-0.68858 -1.90635,-0.67174 z m 23.308925,0.47725 c -2.03052,-0.041 -4.25703,1.16465 -2.68495,3.6514 1.22045,0.77579 2.91631,0.88199 4.19303,0.17723 2.35688,-2.49975 0.52244,-3.78759 -1.50808,-3.82863 z m 27.6606,2.75896 c -2.51934,-0.01 -5.5819,2.49684 -3.10943,5.63773 1.49003,1.78472 4.76524,-0.5413 5.68353,-2.02217 0.43274,-2.56948 -0.95914,-3.6094 -2.5741,-3.61556 z m -15.05296,4.90526 c -2.90562,0.0647 -6.29476,3.76742 -1.87581,5.73132 2.16206,1.41867 5.92787,0.66687 4.82095,-2.59667 -0.22259,-2.33014 -1.52612,-3.16624 -2.94514,-3.13465 z m -14.31154,1.75003 c -2.43821,-0.0112 -6.89424,2.61607 -2.79911,4.16117 0.6086,1.36671 2.42542,-2.70553 3.69653,-1.82338 1.00293,-1.69733 0.29334,-2.33231 -0.89742,-2.33779 z m 31.8991,3.3142 c -2.102,-0.0607 -4.38668,1.00463 -1.91597,3.22061 0.79224,0.52926 1.84177,0.60174 2.7354,0.31396 3.20181,-2.28735 1.28258,-3.4739 -0.81943,-3.53457 z m -30.58915,6.87532 c -1.93638,0.0409 -4.36293,1.5354 -2.72245,3.77718 1.29176,0.0175 2.71535,0.24941 3.89301,-0.42747 1.65539,-2.31136 0.54075,-3.30599 -0.9847,-3.34904 -0.0613,-0.002 -0.12339,-0.002 -0.18586,-8e-4 z m 25.6215,2.9103 c -2.23661,0.0157 -4.9696,2.69226 -1.94185,4.9557 1.57371,1.3878 4.12616,0.11049 4.13296,-1.92758 0.16211,-2.2085 -0.93642,-3.03695 -2.19111,-3.02812 z m 22.77194,3.27305 c -0.007,0.01 -0.0123,0.0204 -0.0152,0.0315 0.002,0.002 0.004,0.003 0.005,0.004 0.003,-0.007 0.006,-0.0204 0.01,-0.0358 z m -42.57185,1.18383 c -0.94656,0.007 -1.52471,0.57391 -0.45269,2.17219 0.0781,0.43777 0.58683,0.65686 0.98869,0.6246 4.42173,-0.78326 1.27109,-2.8101 -0.536,-2.79679 z m 11.57581,2.28801 c -1.61697,0.015 -3.03409,1.11868 -1.57778,3.9408 0.79166,0.25066 1.61128,0.71591 2.46823,0.51111 3.91623,-2.44838 1.3254,-4.47247 -0.89045,-4.45191 z m 11.30864,13.504061 c -2.82677,-0.0653 -4.29102,4.85382 -6.76945,6.0559 -4.32295,3.04365 -3.61095,-2.36608 -5.00748,-4.41772 -3.86143,-0.87509 -2.59247,2.86227 -2.3212,4.77085 -3.12941,3.83302 -7.02949,-1.51498 -8.54769,-4.28829 -1.29074,-1.06044 -2.35112,-1.04959 -3.02779,-0.51907 -0.0478,0.1237 -0.11833,0.2411 -0.22435,0.30468 -0.0401,0.024 -0.0828,0.0427 -0.12611,0.0604 -0.84312,1.15625 -0.59398,3.40314 1.42378,4.42104 3.0471,3.78936 7.65649,5.39255 10.75738,9.09065 3.14956,1.27475 4.79155,-3.68723 7.15212,-5.59159 2.01293,-4.0341 9.16008,-4.15257 8.41659,-9.28249 -0.63201,-0.40921 -1.20232,-0.59228 -1.7258,-0.60436 z"/>
</g>
</g>
<g transform="translate(1076.366162 1039.7638)">
<g transform="scale(3.4015748400000003) " id="mtf2">
<path d="m 47.671118,5.1272611 c -0.14137,0.002 -0.28779,0.0106 -0.43974,0.0259 -5.08501,0.86446 -4.09406,7.8403699 -8.61573,9.9678299 -3.11751,3.04484 -8.55477,4.71193 -9.4169,9.44079 l 0.52504,0.3591 0.49484,0.19382 c 2.71977,-1.02695 5.7986,-3.02341 6.74622,-5.65996 2.05362,-1.12359 6.04351,-7.15627 7.39771,-3.3225 -1.49533,2.99129 2.01317,7.86634 4.37059,3.96437 -0.90262,-2.93947 0.4994,-6.03793 3.67695,-3.3318 3.88094,1.32219 7.30034,7.11698 11.6787,4.70513 0.9537,-4.33273 -7.49405,-4.04608 -9.17064,-8.19589 -3.42207,-2.04068 -2.86458,-8.2086699 -7.24704,-8.1467699 z m -3.24152,27.2683099 c -1.61391,0.0126 -3.139,0.9711 -1.66108,3.10246 0.33575,0.0461 1.79793,-0.29846 3.24783,0.17025 2.18542,-2.08615 0.24236,-3.287 -1.58675,-3.27271 z m 10.81878,2.19907 c -1.62223,0.0646 -3.08125,1.9254 -1.29368,4.02178 1.44288,1.70903 5.55694,0.82633 3.72407,-1.86088 -0.425,-1.59175 -1.45705,-2.19964 -2.43039,-2.1609 z m 28.39872,1.03448 c -2.13917,-0.0895 -1.83663,6.12972 0.83966,7.29018 4.26705,2.64658 -0.27633,4.85752 -3.36796,3.93682 -3.88344,-0.24727 -2.35392,2.86296 0.75238,2.51237 3.85144,-0.63956 6.35612,3.79957 2.06366,5.27829 0.58933,2.94145 -8.12165,5.56153 -3.6212,8.21913 0.0827,0.3413 0.0629,0.87968 0.76334,0.0345 3.79568,-2.64558 5.457,-7.60085 10.18621,-9.06078 3.54666,0.19295 5.09277,-3.76053 2.29365,-6.46943 -3.33521,-3.14564 -5.68782,-7.03457 -8.2616,-10.76833 -0.65493,-0.66371 -1.20417,-0.95417 -1.64814,-0.97276 z m -71.354555,0.34549 c -1.82222,0.0602 -2.11645,2.85741 -1.62524,4.81366 -0.47761,4.40838 -8.6996305,6.4964 -4.4538905,11.05442 4.1673605,2.20931 4.3406905,7.86175 8.3761105,9.98641 4.70745,1.70867 0.85452,-2.82395 0.15897,-4.37059 -3.45027,-2.74518 -1.3401,-7.76025 3.21298,-7.14448 2.86878,-2.89294 -4.10888,-3.52548 -5.97028,-3.32449 -3.0167905,-3.53083 4.39728,-7.01874 2.2077,-10.34319 -0.76612,-0.49086 -1.39613,-0.68858 -1.90635,-0.67174 z m 23.308925,0.47725 c -2.03052,-0.041 -4.25703,1.16465 -2.68495,3.6514 1.22045,0.77579 2.91631,0.88199 4.19303,0.17723 2.35688,-2.49975 0.52244,-3.78759 -1.50808,-3.82863 z m 27.6606,2.75896 c -2.51934,-0.01 -5.5819,2.49684 -3.10943,5.63773 1.49003,1.78472 4.76524,-0.5413 5.68353,-2.02217 0.43274,-2.56948 -0.95914,-3.6094 -2.5741,-3.61556 z m -15.05296,4.90526 c -2.90562,0.0647 -6.29476,3.76742 -1.87581,5.73132 2.16206,1.41867 5.92787,0.66687 4.82095,-2.59667 -0.22259,-2.33014 -1.52612,-3.16624 -2.94514,-3.13465 z m -14.31154,1.75003 c -2.43821,-0.0112 -6.89424,2.61607 -2.79911,4.16117 0.6086,1.36671 2.42542,-2.70553 3.69653,-1.82338 1.00293,-1.69733 0.29334,-2.33231 -0.89742,-2.33779 z m 31.8991,3.3142 c -2.102,-0.0607 -4.38668,1.00463 -1.91597,3.22061 0.79224,0.52926 1.84177,0.60174 2.7354,0.31396 3.20181,-2.28735 1.28258,-3.4739 -0.81943,-3.53457 z m -30.58915,6.87532 c -1.93638,0.0409 -4.36293,1.5354 -2.72245,3.77718 1.29176,0.0175 2.71535,0.24941 3.89301,-0.42747 1.65539,-2.31136 0.54075,-3.30599 -0.9847,-3.34904 -0.0613,-0.002 -0.12339,-0.002 -0.18586,-8e-4 z m 25.6215,2.9103 c -2.23661,0.0157 -4.9696,2.69226 -1.94185,4.9557 1.57371,1.3878 4.12616,0.11049 4.13296,-1.92758 0.16211,-2.2085 -0.93642,-3.03695 -2.19111,-3.02812 z m 22.77194,3.27305 c -0.007,0.01 -0.0123,0.0204 -0.0152,0.0315 0.002,0.002 0.004,0.003 0.005,0.004 0.003,-0.007 0.006,-0.0204 0.01,-0.0358 z m -42.57185,1.18383 c -0.94656,0.007 -1.52471,0.57391 -0.45269,2.17219 0.0781,0.43777 0.58683,0.65686 0.98869,0.6246 4.42173,-0.78326 1.27109,-2.8101 -0.536,-2.79679 z m 11.57581,2.28801 c -1.61697,0.015 -3.03409,1.11868 -1.57778,3.9408 0.79166,0.25066 1.61128,0.71591 2.46823,0.51111 3.91623,-2.44838 1.3254,-4.47247 -0.89045,-4.45191 z m 11.30864,13.504061 c -2.82677,-0.0653 -4.29102,4.85382 -6.76945,6.0559 -4.32295,3.04365 -3.61095,-2.36608 -5.00748,-4.41772 -3.86143,-0.87509 -2.59247,2.86227 -2.3212,4.77085 -3.12941,3.83302 -7.02949,-1.51498 -8.54769,-4.28829 -1.29074,-1.06044 -2.35112,-1.04959 -3.02779,-0.51907 -0.0478,0.1237 -0.11833,0.2411 -0.22435,0.30468 -0.0401,0.024 -0.0828,0.0427 -0.12611,0.0604 -0.84312,1.15625 -0.59398,3.40314 1.42378,4.42104 3.0471,3.78936 7.65649,5.39255 10.75738,9.09065 3.14956,1.27475 4.79155,-3.68723 7.15212,-5.59159 2.01293,-4.0341 9.16008,-4.15257 8.41659,-9.28249 -0.63201,-0.40921 -1.20232,-0.59228 -1.7258,-0.60436 z"/>
</g>
</g>
<g transform="translate(3005.3661620000003 1039.7638)">
<g transform="scale(3.4015748400000003) " id="mtf3">
<path d="m 47.671118,5.1272611 c -0.14137,0.002 -0.28779,0.0106 -0.43974,0.0259 -5.08501,0.86446 -4.09406,7.8403699 -8.61573,9.9678299 -3.11751,3.04484 -8.55477,4.71193 -9.4169,9.44079 l 0.52504,0.3591 0.49484,0.19382 c 2.71977,-1.02695 5.7986,-3.02341 6.74622,-5.65996 2.05362,-1.12359 6.04351,-7.15627 7.39771,-3.3225 -1.49533,2.99129 2.01317,7.86634 4.37059,3.96437 -0.90262,-2.93947 0.4994,-6.03793 3.67695,-3.3318 3.88094,1.32219 7.30034,7.11698 11.6787,4.70513 0.9537,-4.33273 -7.49405,-4.04608 -9.17064,-8.19589 -3.42207,-2.04068 -2.86458,-8.2086699 -7.24704,-8.1467699 z m -3.24152,27.2683099 c -1.61391,0.0126 -3.139,0.9711 -1.66108,3.10246 0.33575,0.0461 1.79793,-0.29846 3.24783,0.17025 2.18542,-2.08615 0.24236,-3.287 -1.58675,-3.27271 z m 10.81878,2.19907 c -1.62223,0.0646 -3.08125,1.9254 -1.29368,4.02178 1.44288,1.70903 5.55694,0.82633 3.72407,-1.86088 -0.425,-1.59175 -1.45705,-2.19964 -2.43039,-2.1609 z m 28.39872,1.03448 c -2.13917,-0.0895 -1.83663,6.12972 0.83966,7.29018 4.26705,2.64658 -0.27633,4.85752 -3.36796,3.93682 -3.88344,-0.24727 -2.35392,2.86296 0.75238,2.51237 3.85144,-0.63956 6.35612,3.79957 2.06366,5.27829 0.58933,2.94145 -8.12165,5.56153 -3.6212,8.21913 0.0827,0.3413 0.0629,0.87968 0.76334,0.0345 3.79568,-2.64558 5.457,-7.60085 10.18621,-9.06078 3.54666,0.19295 5.09277,-3.76053 2.29365,-6.46943 -3.33521,-3.14564 -5.68782,-7.03457 -8.2616,-10.76833 -0.65493,-0.66371 -1.20417,-0.95417 -1.64814,-0.97276 z m -71.354555,0.34549 c -1.82222,0.0602 -2.11645,2.85741 -1.62524,4.81366 -0.47761,4.40838 -8.6996305,6.4964 -4.4538905,11.05442 4.1673605,2.20931 4.3406905,7.86175 8.3761105,9.98641 4.70745,1.70867 0.85452,-2.82395 0.15897,-4.37059 -3.45027,-2.74518 -1.3401,-7.76025 3.21298,-7.14448 2.86878,-2.89294 -4.10888,-3.52548 -5.97028,-3.32449 -3.0167905,-3.53083 4.39728,-7.01874 2.2077,-10.34319 -0.76612,-0.49086 -1.39613,-0.68858 -1.90635,-0.67174 z m 23.308925,0.47725 c -2.03052,-0.041 -4.25703,1.16465 -2.68495,3.6514 1.22045,0.77579 2.91631,0.88199 4.19303,0.17723 2.35688,-2.49975 0.52244,-3.78759 -1.50808,-3.82863 z m 27.6606,2.75896 c -2.51934,-0.01 -5.5819,2.49684 -3.10943,5.63773 1.49003,1.78472 4.76524,-0.5413 5.68353,-2.02217 0.43274,-2.56948 -0.95914,-3.6094 -2.5741,-3.61556 z m -15.05296,4.90526 c -2.90562,0.0647 -6.29476,3.76742 -1.87581,5.73132 2.16206,1.41867 5.92787,0.66687 4.82095,-2.59667 -0.22259,-2.33014 -1.52612,-3.16624 -2.94514,-3.13465 z m -14.31154,1.75003 c -2.43821,-0.0112 -6.89424,2.61607 -2.79911,4.16117 0.6086,1.36671 2.42542,-2.70553 3.69653,-1.82338 1.00293,-1.69733 0.29334,-2.33231 -0.89742,-2.33779 z m 31.8991,3.3142 c -2.102,-0.0607 -4.38668,1.00463 -1.91597,3.22061 0.79224,0.52926 1.84177,0.60174 2.7354,0.31396 3.20181,-2.28735 1.28258,-3.4739 -0.81943,-3.53457 z m -30.58915,6.87532 c -1.93638,0.0409 -4.36293,1.5354 -2.72245,3.77718 1.29176,0.0175 2.71535,0.24941 3.89301,-0.42747 1.65539,-2.31136 0.54075,-3.30599 -0.9847,-3.34904 -0.0613,-0.002 -0.12339,-0.002 -0.18586,-8e-4 z m 25.6215,2.9103 c -2.23661,0.0157 -4.9696,2.69226 -1.94185,4.9557 1.57371,1.3878 4.12616,0.11049 4.13296,-1.92758 0.16211,-2.2085 -0.93642,-3.03695 -2.19111,-3.02812 z m 22.77194,3.27305 c -0.007,0.01 -0.0123,0.0204 -0.0152,0.0315 0.002,0.002 0.004,0.003 0.005,0.004 0.003,-0.007 0.006,-0.0204 0.01,-0.0358 z m -42.57185,1.18383 c -0.94656,0.007 -1.52471,0.57391 -0.45269,2.17219 0.0781,0.43777 0.58683,0.65686 0.98869,0.6246 4.42173,-0.78326 1.27109,-2.8101 -0.536,-2.79679 z m 11.57581,2.28801 c -1.61697,0.015 -3.03409,1.11868 -1.57778,3.9408 0.79166,0.25066 1.61128,0.71591 2.46823,0.51111 3.91623,-2.44838 1.3254,-4.47247 -0.89045,-4.45191 z m 11.30864,13.504061 c -2.82677,-0.0653 -4.29102,4.85382 -6.76945,6.0559 -4.32295,3.04365 -3.61095,-2.36608 -5.00748,-4.41772 -3.86143,-0.87509 -2.59247,2.86227 -2.3212,4.77085 -3.12941,3.83302 -7.02949,-1.51498 -8.54769,-4.28829 -1.29074,-1.06044 -2.35112,-1.04959 -3.02779,-0.51907 -0.0478,0.1237 -0.11833,0.2411 -0.22435,0.30468 -0.0401,0.024 -0.0828,0.0427 -0.12611,0.0604 -0.84312,1.15625 -0.59398,3.40314 1.42378,4.42104 3.0471,3.78936 7.65649,5.39255 10.75738,9.09065 3.14956,1.27475 4.79155,-3.68723 7.15212,-5.59159 2.01293,-4.0341 9.16008,-4.15257 8.41659,-9.28249 -0.63201,-0.40921 -1.20232,-0.59228 -1.7258,-0.60436 z"/>
</g>
</g>
<g transform="translate(3005.3661620000003 1719.7638)">
<g transform="scale(3.4015748400000003) " id="mtf4">
<path d="m 47.671118,5.1272611 c -0.14137,0.002 -0.28779,0.0106 -0.43974,0.0259 -5.08501,0.86446 -4.09406,7.8403699 -8.61573,9.9678299 -3.11751,3.04484 -8.55477,4.71193 -9.4169,9.44079 l 0.52504,0.3591 0.49484,0.19382 c 2.71977,-1.02695 5.7986,-3.02341 6.74622,-5.65996 2.05362,-1.12359 6.04351,-7.15627 7.39771,-3.3225 -1.49533,2.99129 2.01317,7.86634 4.37059,3.96437 -0.90262,-2.93947 0.4994,-6.03793 3.67695,-3.3318 3.88094,1.32219 7.30034,7.11698 11.6787,4.70513 0.9537,-4.33273 -7.49405,-4.04608 -9.17064,-8.19589 -3.42207,-2.04068 -2.86458,-8.2086699 -7.24704,-8.1467699 z m -3.24152,27.2683099 c -1.61391,0.0126 -3.139,0.9711 -1.66108,3.10246 0.33575,0.0461 1.79793,-0.29846 3.24783,0.17025 2.18542,-2.08615 0.24236,-3.287 -1.58675,-3.27271 z m 10.81878,2.19907 c -1.62223,0.0646 -3.08125,1.9254 -1.29368,4.02178 1.44288,1.70903 5.55694,0.82633 3.72407,-1.86088 -0.425,-1.59175 -1.45705,-2.19964 -2.43039,-2.1609 z m 28.39872,1.03448 c -2.13917,-0.0895 -1.83663,6.12972 0.83966,7.29018 4.26705,2.64658 -0.27633,4.85752 -3.36796,3.93682 -3.88344,-0.24727 -2.35392,2.86296 0.75238,2.51237 3.85144,-0.63956 6.35612,3.79957 2.06366,5.27829 0.58933,2.94145 -8.12165,5.56153 -3.6212,8.21913 0.0827,0.3413 0.0629,0.87968 0.76334,0.0345 3.79568,-2.64558 5.457,-7.60085 10.18621,-9.06078 3.54666,0.19295 5.09277,-3.76053 2.29365,-6.46943 -3.33521,-3.14564 -5.68782,-7.03457 -8.2616,-10.76833 -0.65493,-0.66371 -1.20417,-0.95417 -1.64814,-0.97276 z m -71.354555,0.34549 c -1.82222,0.0602 -2.11645,2.85741 -1.62524,4.81366 -0.47761,4.40838 -8.6996305,6.4964 -4.4538905,11.05442 4.1673605,2.20931 4.3406905,7.86175 8.3761105,9.98641 4.70745,1.70867 0.85452,-2.82395 0.15897,-4.37059 -3.45027,-2.74518 -1.3401,-7.76025 3.21298,-7.14448 2.86878,-2.89294 -4.10888,-3.52548 -5.97028,-3.32449 -3.0167905,-3.53083 4.39728,-7.01874 2.2077,-10.34319 -0.76612,-0.49086 -1.39613,-0.68858 -1.90635,-0.67174 z m 23.308925,0.47725 c -2.03052,-0.041 -4.25703,1.16465 -2.68495,3.6514 1.22045,0.77579 2.91631,0.88199 4.19303,0.17723 2.35688,-2.49975 0.52244,-3.78759 -1.50808,-3.82863 z m 27.6606,2.75896 c -2.51934,-0.01 -5.5819,2.49684 -3.10943,5.63773 1.49003,1.78472 4.76524,-0.5413 5.68353,-2.02217 0.43274,-2.56948 -0.95914,-3.6094 -2.5741,-3.61556 z m -15.05296,4.90526 c -2.90562,0.0647 -6.29476,3.76742 -1.87581,5.73132 2.16206,1.41867 5.92787,0.66687 4.82095,-2.59667 -0.22259,-2.33014 -1.52612,-3.16624 -2.94514,-3.13465 z m -14.31154,1.75003 c -2.43821,-0.0112 -6.89424,2.61607 -2.79911,4.16117 0.6086,1.36671 2.42542,-2.70553 3.69653,-1.82338 1.00293,-1.69733 0.29334,-2.33231 -0.89742,-2.33779 z m 31.8991,3.3142 c -2.102,-0.0607 -4.38668,1.00463 -1.91597,3.22061 0.79224,0.52926 1.84177,0.60174 2.7354,0.31396 3.20181,-2.28735 1.28258,-3.4739 -0.81943,-3.53457 z m -30.58915,6.87532 c -1.93638,0.0409 -4.36293,1.5354 -2.72245,3.77718 1.29176,0.0175 2.71535,0.24941 3.89301,-0.42747 1.65539,-2.31136 0.54075,-3.30599 -0.9847,-3.34904 -0.0613,-0.002 -0.12339,-0.002 -0.18586,-8e-4 z m 25.6215,2.9103 c -2.23661,0.0157 -4.9696,2.69226 -1.94185,4.9557 1.57371,1.3878 4.12616,0.11049 4.13296,-1.92758 0.16211,-2.2085 -0.93642,-3.03695 -2.19111,-3.02812 z m 22.77194,3.27305 c -0.007,0.01 -0.0123,0.0204 -0.0152,0.0315 0.002,0.002 0.004,0.003 0.005,0.004 0.003,-0.007 0.006,-0.0204 0.01,-0.0358 z m -42.57185,1.18383 c -0.94656,0.007 -1.52471,0.57391 -0.45269,2.17219 0.0781,0.43777 0.58683,0.65686 0.98869,0.6246 4.42173,-0.78326 1.27109,-2.8101 -0.536,-2.79679 z m 11.57581,2.28801 c -1.61697,0.015 -3.03409,1.11868 -1.57778,3.9408 0.79166,0.25066 1.61128,0.71591 2.46823,0.51111 3.91623,-2.44838 1.3254,-4.47247 -0.89045,-4.45191 z m 11.30864,13.504061 c -2.82677,-0.0653 -4.29102,4.85382 -6.76945,6.0559 -4.32295,3.04365 -3.61095,-2.36608 -5.00748,-4.41772 -3.86143,-0.87509 -2.59247,2.86227 -2.3212,4.77085 -3.12941,3.83302 -7.02949,-1.51498 -8.54769,-4.28829 -1.29074,-1.06044 -2.35112,-1.04959 -3.02779,-0.51907 -0.0478,0.1237 -0.11833,0.2411 -0.22435,0.30468 -0.0401,0.024 -0.0828,0.0427 -0.12611,0.0604 -0.84312,1.15625 -0.59398,3.40314 1.42378,4.42104 3.0471,3.78936 7.65649,5.39255 10.75738,9.09065 3.14956,1.27475 4.79155,-3.68723 7.15212,-5.59159 2.01293,-4.0341 9.16008,-4.15257 8.41659,-9.28249 -0.63201,-0.40921 -1.20232,-0.59228 -1.7258,-0.60436 z"/>
</g>
</g>
<g transform="translate(3005.3661620000003 2399.7637999999997)">
<g transform="scale(3.4015748400000003) " id="mtf5">
<path d="m 47.671118,5.1272611 c -0.14137,0.002 -0.28779,0.0106 -0.43974,0.0259 -5.08501,0.86446 -4.09406,7.8403699 -8.61573,9.9678299 -3.11751,3.04484 -8.55477,4.71193 -9.4169,9.44079 l 0.52504,0.3591 0.49484,0.19382 c 2.71977,-1.02695 5.7986,-3.02341 6.74622,-5.65996 2.05362,-1.12359 6.04351,-7.15627 7.39771,-3.3225 -1.49533,2.99129 2.01317,7.86634 4.37059,3.96437 -0.90262,-2.93947 0.4994,-6.03793 3.67695,-3.3318 3.88094,1.32219 7.30034,7.11698 11.6787,4.70513 0.9537,-4.33273 -7.49405,-4.04608 -9.17064,-8.19589 -3.42207,-2.04068 -2.86458,-8.2086699 -7.24704,-8.1467699 z m -3.24152,27.2683099 c -1.61391,0.0126 -3.139,0.9711 -1.66108,3.10246 0.33575,0.0461 1.79793,-0.29846 3.24783,0.17025 2.18542,-2.08615 0.24236,-3.287 -1.58675,-3.27271 z m 10.81878,2.19907 c -1.62223,0.0646 -3.08125,1.9254 -1.29368,4.02178 1.44288,1.70903 5.55694,0.82633 3.72407,-1.86088 -0.425,-1.59175 -1.45705,-2.19964 -2.43039,-2.1609 z m 28.39872,1.03448 c -2.13917,-0.0895 -1.83663,6.12972 0.83966,7.29018 4.26705,2.64658 -0.27633,4.85752 -3.36796,3.93682 -3.88344,-0.24727 -2.35392,2.86296 0.75238,2.51237 3.85144,-0.63956 6.35612,3.79957 2.06366,5.27829 0.58933,2.94145 -8.12165,5.56153 -3.6212,8.21913 0.0827,0.3413 0.0629,0.87968 0.76334,0.0345 3.79568,-2.64558 5.457,-7.60085 10.18621,-9.06078 3.54666,0.19295 5.09277,-3.76053 2.29365,-6.46943 -3.33521,-3.14564 -5.68782,-7.03457 -8.2616,-10.76833 -0.65493,-0.66371 -1.20417,-0.95417 -1.64814,-0.97276 z m -71.354555,0.34549 c -1.82222,0.0602 -2.11645,2.85741 -1.62524,4.81366 -0.47761,4.40838 -8.6996305,6.4964 -4.4538905,11.05442 4.1673605,2.20931 4.3406905,7.86175 8.3761105,9.98641 4.70745,1.70867 0.85452,-2.82395 0.15897,-4.37059 -3.45027,-2.74518 -1.3401,-7.76025 3.21298,-7.14448 2.86878,-2.89294 -4.10888,-3.52548 -5.97028,-3.32449 -3.0167905,-3.53083 4.39728,-7.01874 2.2077,-10.34319 -0.76612,-0.49086 -1.39613,-0.68858 -1.90635,-0.67174 z m 23.308925,0.47725 c -2.03052,-0.041 -4.25703,1.16465 -2.68495,3.6514 1.22045,0.77579 2.91631,0.88199 4.19303,0.17723 2.35688,-2.49975 0.52244,-3.78759 -1.50808,-3.82863 z m 27.6606,2.75896 c -2.51934,-0.01 -5.5819,2.49684 -3.10943,5.63773 1.49003,1.78472 4.76524,-0.5413 5.68353,-2.02217 0.43274,-2.56948 -0.95914,-3.6094 -2.5741,-3.61556 z m -15.05296,4.90526 c -2.90562,0.0647 -6.29476,3.76742 -1.87581,5.73132 2.16206,1.41867 5.92787,0.66687 4.82095,-2.59667 -0.22259,-2.33014 -1.52612,-3.16624 -2.94514,-3.13465 z m -14.31154,1.75003 c -2.43821,-0.0112 -6.89424,2.61607 -2.79911,4.16117 0.6086,1.36671 2.42542,-2.70553 3.69653,-1.82338 1.00293,-1.69733 0.29334,-2.33231 -0.89742,-2.33779 z m 31.8991,3.3142 c -2.102,-0.0607 -4.38668,1.00463 -1.91597,3.22061 0.79224,0.52926 1.84177,0.60174 2.7354,0.31396 3.20181,-2.28735 1.28258,-3.4739 -0.81943,-3.53457 z m -30.58915,6.87532 c -1.93638,0.0409 -4.36293,1.5354 -2.72245,3.77718 1.29176,0.0175 2.71535,0.24941 3.89301,-0.42747 1.65539,-2.31136 0.54075,-3.30599 -0.9847,-3.34904 -0.0613,-0.002 -0.12339,-0.002 -0.18586,-8e-4 z m 25.6215,2.9103 c -2.23661,0.0157 -4.9696,2.69226 -1.94185,4.9557 1.57371,1.3878 4.12616,0.11049 4.13296,-1.92758 0.16211,-2.2085 -0.93642,-3.03695 -2.19111,-3.02812 z m 22.77194,3.27305 c -0.007,0.01 -0.0123,0.0204 -0.0152,0.0315 0.002,0.002 0.004,0.003 0.005,0.004 0.003,-0.007 0.006,-0.0204 0.01,-0.0358 z m -42.57185,1.18383 c -0.94656,0.007 -1.52471,0.57391 -0.45269,2.17219 0.0781,0.43777 0.58683,0.65686 0.98869,0.6246 4.42173,-0.78326 1.27109,-2.8101 -0.536,-2.79679 z m 11.57581,2.28801 c -1.61697,0.015 -3.03409,1.11868 -1.57778,3.9408 0.79166,0.25066 1.61128,0.71591 2.46823,0.51111 3.91623,-2.44838 1.3254,-4.47247 -0.89045,-4.45191 z m 11.30864,13.504061 c -2.82677,-0.0653 -4.29102,4.85382 -6.76945,6.0559 -4.32295,3.04365 -3.61095,-2.36608 -5.00748,-4.41772 -3.86143,-0.87509 -2.59247,2.86227 -2.3212,4.77085 -3.12941,3.83302 -7.02949,-1.51498 -8.54769,-4.28829 -1.29074,-1.06044 -2.35112,-1.04959 -3.02779,-0.51907 -0.0478,0.1237 -0.11833,0.2411 -0.22435,0.30468 -0.0401,0.024 -0.0828,0.0427 -0.12611,0.0604 -0.84312,1.15625 -0.59398,3.40314 1.42378,4.42104 3.0471,3.78936 7.65649,5.39255 10.75738,9.09065 3.14956,1.27475 4.79155,-3.68723 7.15212,-5.59159 2.01293,-4.0341 9.16008,-4.15257 8.41659,-9.28249 -0.63201,-0.40921 -1.20232,-0.59228 -1.7258,-0.60436 z"/>
</g>
</g>
<g transform="translate(1605.980334 926.377972)">
<g transform="scale(5.6692914) " id="mtf6">
<path d="m 44.316567,94.261762 c 0.84701,-1.679944 3.66374,-4.740596 3.22046,-1.020181 -0.20717,0.958642 -2.77266,2.782927 -3.22046,1.020181 z m 7.38118,-0.459629 c -0.73085,-1.149043 -0.67651,-5.335211 -3.14781,-3.219807 -0.62142,-2.206632 2.30131,-6.359118 -2.45153,-4.483482 -5.40312,0.428937 -10.42198,-5.51969 -6.18741,-9.213107 1.40689,-2.491887 7.38777,-1.615451 6.4308,0.769462 -5.43312,-3.131788 -7.60241,5.318197 -1.84907,5.713457 4.71268,-0.06786 7.31973,-4.601443 7.27272,-8.310471 0.55552,-4.250004 0.33944,-11.131273 -6.67822,-9.888938 -5.05487,-1.775414 -5.53297,-6.861291 -6.69617,-10.471656 -3.96584,2.215102 -7.75171,-1.887941 -12.45646,-0.728829 -4.72057,-1.320765 -8.64684,2.030461 -8.81741,5.953966 -1.86138,5.147372 4.90793,4.043599 7.69549,5.763257 -2.66994,4.658993 -8.73729,0.126434 -10.00322,-3.259791 -2.68165,-2.699211 4.03629,-7.720025 0.62705,-8.791047 -1.07863,1.439988 -7.4142303,8.017197 -5.22621,2.830426 2.58237,-2.823222 -1.0206903,-5.481484 -4.3104803,-4.81255 -1.74833,-3.163325 2.68898,-2.218414 4.6046603,-1.97788 3.04838,-2.417544 -6.9899303,-3.640694 -1.4441403,-5.073364 2.5575103,2.138218 7.2693503,4.166642 7.8025803,-0.72307 -0.0753,-3.786577 5.3779,-8.239841 8.8878,-4.056311 2.46306,1.818793 1.75271,7.873564 -1.02944,7.264162 0.9428,-2.935703 -2.47082,-9.331224 -5.13281,-3.990365 -1.94109,4.809965 2.58342,8.051736 7.42393,8.844686 4.17772,-0.229462 11.51194,3.670063 12.339,-1.970984 -0.003,-4.51378 4.28357,-7.200172 6.00605,-11.179909 4.78045,-1.773711 4.2653,-7.066318 3.48602,-10.95951 -2.26791,-6.262421 -6.6774,4.343043 -11.08384,0.531512 -6.46151,-2.247985 -4.33782,-10.078245 1.56468,-11.646583 4.27266,-1.308543 9.81352,7.895492 10.1794,0.874862 -0.68532,-4.274246 -5.30678,-6.8399 -7.19608,-10.641197 1.75331,-3.4163971 5.56265,0.8032496 5.73615,2.6800315 1.65426,-1.1568014 2.67243,-7.4753796 3.91662,-3.1116659 -1.17622,2.7055094 0.41376,9.3021014 3.5117,4.2357384 1.01505,-1.9498275 4.08098,-2.7453076 1.7185,-0.0067 -2.06948,1.871084 -5.9637,6.681779 -4.21156,7.995199 3.62237,-2.953764 9.87878,-2.331039 10.71935,2.36764 1.96607,2.678039 -4.61993,9.083422 -5.03494,4.619565 4.09116,-1.584877 5.12711,-6.715116 -0.6463,-6.826808 -6.6487,1.58494 -4.58816,8.762432 -6.33702,13.120727 -1.57609,5.955765 7.23129,5.85176 10.01739,9.816504 3.53838,2.396455 2.31835,9.622947 8.44211,8.602954 4.2768,1.412162 8.37975,-0.811579 11.34736,-3.875553 3.84232,-3.584588 -4.37003,-9.271715 -6.0915,-4.026888 -0.0131,5.616084 -4.00099,-3.147822 0.0385,-3.719786 3.11906,-3.080461 8.06105,1.046941 9.1226,3.789687 -1.38073,3.45497 0.94913,8.617002 5.49564,4.747958 0.79602,-1.47171 6.32527,-5.944846 4.78948,-2.185308 -4.12178,0.562625 -9.45259,6.187957 -2.92957,7.216104 4.16511,-1.181297 2.10986,2.118391 -0.66143,2.450728 -2.42414,0.879459 2.08452,5.524571 -1.71451,3.168687 -1.0147,-2.636734 -7.32069,-7.718143 -7.27039,-2.145233 1.03347,3.791303 -1.16073,12.342699 -7.46048,9.211771 -5.20285,-3.170141 3.52415,-9.906765 -2.85043,-11.558387 -4.41034,-0.844096 -8.17887,0.828296 -8.85312,4.779798 -1.83541,2.934342 -5.40734,4.454447 -7.99995,6.832563 -1.67007,4.433059 -1.63582,9.464966 -0.21612,13.956746 1.80908,4.634138 8.17297,3.009469 9.64926,-0.696213 -0.50815,-2.235514 -6.73047,0.190907 -4.34253,-3.247178 5.09307,-3.980179 8.95436,4.978375 3.70631,7.21947 -1.8408,2.705311 -5.68018,2.789637 -7.51771,0.74833 -1.07214,2.747011 0.82478,5.934962 2.68141,7.52509 -2.5991,0.252319 -4.90708,-3.316895 -4.97101,0.736553 -0.24501,0.948913 -0.58851,3.696545 -2.39371,2.430941 z m -2.04027,-31.318421 c 5.42441,-0.308944 11.85341,-2.795023 12.39732,-7.980992 0.45663,-4.402 0.98972,-9.786109 -3.9272,-12.636262 -3.29909,-2.188513 -9.93843,-3.004013 -12.17251,0.685964 -2.71344,3.498981 -6.47861,7.723511 -4.27535,12.209372 0.50485,3.495474 1.96607,10.573883 7.97774,7.721918 z m -0.0468,-3.471312 c -5.64746,-1.338433 -5.89176,-7.473371 -3.77374,-11.255392 1.66871,-5.475246 10.3288,-6.244388 12.13067,-0.387773 2.83919,3.904701 0.88043,9.066609 -3.76231,11.178957 -1.38511,0.665783 -3.06313,0.798862 -4.59462,0.464208 z m 4.39131,-3.291926 c 3.67547,-2.542339 2.13203,-11.610737 -3.722,-8.871999 -1.94176,2.185066 0.56358,3.165851 2.40571,2.081823 4.79661,3.001947 -8.82099,5.515582 -1.93548,7.453432 1.12667,0.08241 2.30983,-0.104378 3.25177,-0.663256 z m 24.8127,6.767206 c 1.66823,-2.848375 0.19739,-8.790936 -2.49384,-3.580538 -0.73786,1.489168 -0.19934,5.384988 2.49384,3.580538 z M 43.372597,25.775177 c 6.44239,-2.856831 -5.43387,-10.368366 -6.32,-3.112781 -0.86978,3.078527 3.59655,4.686994 6.32,3.112781 z m -18.12482,36.488015 c -2.96301,-2.218647 1.74232,-5.36405 2.02963,-1.357357 0.59583,1.668746 -0.57368,4.200818 -2.02963,1.357357 z"/>
</g>
</g>
<g transform="translate(2248.980334 926.377972)">
<g transform="scale(5.6692914) " id="mtf7">
<path d="m 44.316567,94.261762 c 0.84701,-1.679944 3.66374,-4.740596 3.22046,-1.020181 -0.20717,0.958642 -2.77266,2.782927 -3.22046,1.020181 z m 7.38118,-0.459629 c -0.73085,-1.149043 -0.67651,-5.335211 -3.14781,-3.219807 -0.62142,-2.206632 2.30131,-6.359118 -2.45153,-4.483482 -5.40312,0.428937 -10.42198,-5.51969 -6.18741,-9.213107 1.40689,-2.491887 7.38777,-1.615451 6.4308,0.769462 -5.43312,-3.131788 -7.60241,5.318197 -1.84907,5.713457 4.71268,-0.06786 7.31973,-4.601443 7.27272,-8.310471 0.55552,-4.250004 0.33944,-11.131273 -6.67822,-9.888938 -5.05487,-1.775414 -5.53297,-6.861291 -6.69617,-10.471656 -3.96584,2.215102 -7.75171,-1.887941 -12.45646,-0.728829 -4.72057,-1.320765 -8.64684,2.030461 -8.81741,5.953966 -1.86138,5.147372 4.90793,4.043599 7.69549,5.763257 -2.66994,4.658993 -8.73729,0.126434 -10.00322,-3.259791 -2.68165,-2.699211 4.03629,-7.720025 0.62705,-8.791047 -1.07863,1.439988 -7.4142303,8.017197 -5.22621,2.830426 2.58237,-2.823222 -1.0206903,-5.481484 -4.3104803,-4.81255 -1.74833,-3.163325 2.68898,-2.218414 4.6046603,-1.97788 3.04838,-2.417544 -6.9899303,-3.640694 -1.4441403,-5.073364 2.5575103,2.138218 7.2693503,4.166642 7.8025803,-0.72307 -0.0753,-3.786577 5.3779,-8.239841 8.8878,-4.056311 2.46306,1.818793 1.75271,7.873564 -1.02944,7.264162 0.9428,-2.935703 -2.47082,-9.331224 -5.13281,-3.990365 -1.94109,4.809965 2.58342,8.051736 7.42393,8.844686 4.17772,-0.229462 11.51194,3.670063 12.339,-1.970984 -0.003,-4.51378 4.28357,-7.200172 6.00605,-11.179909 4.78045,-1.773711 4.2653,-7.066318 3.48602,-10.95951 -2.26791,-6.262421 -6.6774,4.343043 -11.08384,0.531512 -6.46151,-2.247985 -4.33782,-10.078245 1.56468,-11.646583 4.27266,-1.308543 9.81352,7.895492 10.1794,0.874862 -0.68532,-4.274246 -5.30678,-6.8399 -7.19608,-10.641197 1.75331,-3.4163971 5.56265,0.8032496 5.73615,2.6800315 1.65426,-1.1568014 2.67243,-7.4753796 3.91662,-3.1116659 -1.17622,2.7055094 0.41376,9.3021014 3.5117,4.2357384 1.01505,-1.9498275 4.08098,-2.7453076 1.7185,-0.0067 -2.06948,1.871084 -5.9637,6.681779 -4.21156,7.995199 3.62237,-2.953764 9.87878,-2.331039 10.71935,2.36764 1.96607,2.678039 -4.61993,9.083422 -5.03494,4.619565 4.09116,-1.584877 5.12711,-6.715116 -0.6463,-6.826808 -6.6487,1.58494 -4.58816,8.762432 -6.33702,13.120727 -1.57609,5.955765 7.23129,5.85176 10.01739,9.816504 3.53838,2.396455 2.31835,9.622947 8.44211,8.602954 4.2768,1.412162 8.37975,-0.811579 11.34736,-3.875553 3.84232,-3.584588 -4.37003,-9.271715 -6.0915,-4.026888 -0.0131,5.616084 -4.00099,-3.147822 0.0385,-3.719786 3.11906,-3.080461 8.06105,1.046941 9.1226,3.789687 -1.38073,3.45497 0.94913,8.617002 5.49564,4.747958 0.79602,-1.47171 6.32527,-5.944846 4.78948,-2.185308 -4.12178,0.562625 -9.45259,6.187957 -2.92957,7.216104 4.16511,-1.181297 2.10986,2.118391 -0.66143,2.450728 -2.42414,0.879459 2.08452,5.524571 -1.71451,3.168687 -1.0147,-2.636734 -7.32069,-7.718143 -7.27039,-2.145233 1.03347,3.791303 -1.16073,12.342699 -7.46048,9.211771 -5.20285,-3.170141 3.52415,-9.906765 -2.85043,-11.558387 -4.41034,-0.844096 -8.17887,0.828296 -8.85312,4.779798 -1.83541,2.934342 -5.40734,4.454447 -7.99995,6.832563 -1.67007,4.433059 -1.63582,9.464966 -0.21612,13.956746 1.80908,4.634138 8.17297,3.009469 9.64926,-0.696213 -0.50815,-2.235514 -6.73047,0.190907 -4.34253,-3.247178 5.09307,-3.980179 8.95436,4.978375 3.70631,7.21947 -1.8408,2.705311 -5.68018,2.789637 -7.51771,0.74833 -1.07214,2.747011 0.82478,5.934962 2.68141,7.52509 -2.5991,0.252319 -4.90708,-3.316895 -4.97101,0.736553 -0.24501,0.948913 -0.58851,3.696545 -2.39371,2.430941 z m -2.04027,-31.318421 c 5.42441,-0.308944 11.85341,-2.795023 12.39732,-7.980992 0.45663,-4.402 0.98972,-9.786109 -3.9272,-12.636262 -3.29909,-2.188513 -9.93843,-3.004013 -12.17251,0.685964 -2.71344,3.498981 -6.47861,7.723511 -4.27535,12.209372 0.50485,3.495474 1.96607,10.573883 7.97774,7.721918 z m -0.0468,-3.471312 c -5.64746,-1.338433 -5.89176,-7.473371 -3.77374,-11.255392 1.66871,-5.475246 10.3288,-6.244388 12.13067,-0.387773 2.83919,3.904701 0.88043,9.066609 -3.76231,11.178957 -1.38511,0.665783 -3.06313,0.798862 -4.59462,0.464208 z m 4.39131,-3.291926 c 3.67547,-2.542339 2.13203,-11.610737 -3.722,-8.871999 -1.94176,2.185066 0.56358,3.165851 2.40571,2.081823 4.79661,3.001947 -8.82099,5.515582 -1.93548,7.453432 1.12667,0.08241 2.30983,-0.104378 3.25177,-0.663256 z m 24.8127,6.767206 c 1.66823,-2.848375 0.19739,-8.790936 -2.49384,-3.580538 -0.73786,1.489168 -0.19934,5.384988 2.49384,3.580538 z M 43.372597,25.775177 c 6.44239,-2.856831 -5.43387,-10.368366 -6.32,-3.112781 -0.86978,3.078527 3.59655,4.686994 6.32,3.112781 z m -18.12482,36.488015 c -2.96301,-2.218647 1.74232,-5.36405 2.02963,-1.357357 0.59583,1.668746 -0.57368,4.200818 -2.02963,1.357357 z"/>
</g>
</g>
<g transform="translate(2248.980334 1606.377972)">
<g transform="scale(5.6692914) " id="mtf8">
<path d="m 44.316567,94.261762 c 0.84701,-1.679944 3.66374,-4.740596 3.22046,-1.020181 -0.20717,0.958642 -2.77266,2.782927 -3.22046,1.020181 z m 7.38118,-0.459629 c -0.73085,-1.149043 -0.67651,-5.335211 -3.14781,-3.219807 -0.62142,-2.206632 2.30131,-6.359118 -2.45153,-4.483482 -5.40312,0.428937 -10.42198,-5.51969 -6.18741,-9.213107 1.40689,-2.491887 7.38777,-1.615451 6.4308,0.769462 -5.43312,-3.131788 -7.60241,5.318197 -1.84907,5.713457 4.71268,-0.06786 7.31973,-4.601443 7.27272,-8.310471 0.55552,-4.250004 0.33944,-11.131273 -6.67822,-9.888938 -5.05487,-1.775414 -5.53297,-6.861291 -6.69617,-10.471656 -3.96584,2.215102 -7.75171,-1.887941 -12.45646,-0.728829 -4.72057,-1.320765 -8.64684,2.030461 -8.81741,5.953966 -1.86138,5.147372 4.90793,4.043599 7.69549,5.763257 -2.66994,4.658993 -8.73729,0.126434 -10.00322,-3.259791 -2.68165,-2.699211 4.03629,-7.720025 0.62705,-8.791047 -1.07863,1.439988 -7.4142303,8.017197 -5.22621,2.830426 2.58237,-2.823222 -1.0206903,-5.481484 -4.3104803,-4.81255 -1.74833,-3.163325 2.68898,-2.218414 4.6046603,-1.97788 3.04838,-2.417544 -6.9899303,-3.640694 -1.4441403,-5.073364 2.5575103,2.138218 7.2693503,4.166642 7.8025803,-0.72307 -0.0753,-3.786577 5.3779,-8.239841 8.8878,-4.056311 2.46306,1.818793 1.75271,7.873564 -1.02944,7.264162 0.9428,-2.935703 -2.47082,-9.331224 -5.13281,-3.990365 -1.94109,4.809965 2.58342,8.051736 7.42393,8.844686 4.17772,-0.229462 11.51194,3.670063 12.339,-1.970984 -0.003,-4.51378 4.28357,-7.200172 6.00605,-11.179909 4.78045,-1.773711 4.2653,-7.066318 3.48602,-10.95951 -2.26791,-6.262421 -6.6774,4.343043 -11.08384,0.531512 -6.46151,-2.247985 -4.33782,-10.078245 1.56468,-11.646583 4.27266,-1.308543 9.81352,7.895492 10.1794,0.874862 -0.68532,-4.274246 -5.30678,-6.8399 -7.19608,-10.641197 1.75331,-3.4163971 5.56265,0.8032496 5.73615,2.6800315 1.65426,-1.1568014 2.67243,-7.4753796 3.91662,-3.1116659 -1.17622,2.7055094 0.41376,9.3021014 3.5117,4.2357384 1.01505,-1.9498275 4.08098,-2.7453076 1.7185,-0.0067 -2.06948,1.871084 -5.9637,6.681779 -4.21156,7.995199 3.62237,-2.953764 9.87878,-2.331039 10.71935,2.36764 1.96607,2.678039 -4.61993,9.083422 -5.03494,4.619565 4.09116,-1.584877 5.12711,-6.715116 -0.6463,-6.826808 -6.6487,1.58494 -4.58816,8.762432 -6.33702,13.120727 -1.57609,5.955765 7.23129,5.85176 10.01739,9.816504 3.53838,2.396455 2.31835,9.622947 8.44211,8.602954 4.2768,1.412162 8.37975,-0.811579 11.34736,-3.875553 3.84232,-3.584588 -4.37003,-9.271715 -6.0915,-4.026888 -0.0131,5.616084 -4.00099,-3.147822 0.0385,-3.719786 3.11906,-3.080461 8.06105,1.046941 9.1226,3.789687 -1.38073,3.45497 0.94913,8.617002 5.49564,4.747958 0.79602,-1.47171 6.32527,-5.944846 4.78948,-2.185308 -4.12178,0.562625 -9.45259,6.187957 -2.92957,7.216104 4.16511,-1.181297 2.10986,2.118391 -0.66143,2.450728 -2.42414,0.879459 2.08452,5.524571 -1.71451,3.168687 -1.0147,-2.636734 -7.32069,-7.718143 -7.27039,-2.145233 1.03347,3.791303 -1.16073,12.342699 -7.46048,9.211771 -5.20285,-3.170141 3.52415,-9.906765 -2.85043,-11.558387 -4.41034,-0.844096 -8.17887,0.828296 -8.85312,4.779798 -1.83541,2.934342 -5.40734,4.454447 -7.99995,6.832563 -1.67007,4.433059 -1.63582,9.464966 -0.21612,13.956746 1.80908,4.634138 8.17297,3.009469 9.64926,-0.696213 -0.50815,-2.235514 -6.73047,0.190907 -4.34253,-3.247178 5.09307,-3.980179 8.95436,4.978375 3.70631,7.21947 -1.8408,2.705311 -5.68018,2.789637 -7.51771,0.74833 -1.07214,2.747011 0.82478,5.934962 2.68141,7.52509 -2.5991,0.252319 -4.90708,-3.316895 -4.97101,0.736553 -0.24501,0.948913 -0.58851,3.696545 -2.39371,2.430941 z m -2.04027,-31.318421 c 5.42441,-0.308944 11.85341,-2.795023 12.39732,-7.980992 0.45663,-4.402 0.98972,-9.786109 -3.9272,-12.636262 -3.29909,-2.188513 -9.93843,-3.004013 -12.17251,0.685964 -2.71344,3.498981 -6.47861,7.723511 -4.27535,12.209372 0.50485,3.495474 1.96607,10.573883 7.97774,7.721918 z m -0.0468,-3.471312 c -5.64746,-1.338433 -5.89176,-7.473371 -3.77374,-11.255392 1.66871,-5.475246 10.3288,-6.244388 12.13067,-0.387773 2.83919,3.904701 0.88043,9.066609 -3.76231,11.178957 -1.38511,0.665783 -3.06313,0.798862 -4.59462,0.464208 z m 4.39131,-3.291926 c 3.67547,-2.542339 2.13203,-11.610737 -3.722,-8.871999 -1.94176,2.185066 0.56358,3.165851 2.40571,2.081823 4.79661,3.001947 -8.82099,5.515582 -1.93548,7.453432 1.12667,0.08241 2.30983,-0.104378 3.25177,-0.663256 z m 24.8127,6.767206 c 1.66823,-2.848375 0.19739,-8.790936 -2.49384,-3.580538 -0.73786,1.489168 -0.19934,5.384988 2.49384,3.580538 z M 43.372597,25.775177 c 6.44239,-2.856831 -5.43387,-10.368366 -6.32,-3.112781 -0.86978,3.078527 3.59655,4.686994 6.32,3.112781 z m -18.12482,36.488015 c -2.96301,-2.218647 1.74232,-5.36405 2.02963,-1.357357 0.59583,1.668746 -0.57368,4.200818 -2.02963,1.357357 z"/>
</g>
</g>
<g transform="translate(2248.980334 2286.377972)">
<g transform="scale(5.6692914) " id="mtf9">
<path d="m 44.316567,94.261762 c 0.84701,-1.679944 3.66374,-4.740596 3.22046,-1.020181 -0.20717,0.958642 -2.77266,2.782927 -3.22046,1.020181 z m 7.38118,-0.459629 c -0.73085,-1.149043 -0.67651,-5.335211 -3.14781,-3.219807 -0.62142,-2.206632 2.30131,-6.359118 -2.45153,-4.483482 -5.40312,0.428937 -10.42198,-5.51969 -6.18741,-9.213107 1.40689,-2.491887 7.38777,-1.615451 6.4308,0.769462 -5.43312,-3.131788 -7.60241,5.318197 -1.84907,5.713457 4.71268,-0.06786 7.31973,-4.601443 7.27272,-8.310471 0.55552,-4.250004 0.33944,-11.131273 -6.67822,-9.888938 -5.05487,-1.775414 -5.53297,-6.861291 -6.69617,-10.471656 -3.96584,2.215102 -7.75171,-1.887941 -12.45646,-0.728829 -4.72057,-1.320765 -8.64684,2.030461 -8.81741,5.953966 -1.86138,5.147372 4.90793,4.043599 7.69549,5.763257 -2.66994,4.658993 -8.73729,0.126434 -10.00322,-3.259791 -2.68165,-2.699211 4.03629,-7.720025 0.62705,-8.791047 -1.07863,1.439988 -7.4142303,8.017197 -5.22621,2.830426 2.58237,-2.823222 -1.0206903,-5.481484 -4.3104803,-4.81255 -1.74833,-3.163325 2.68898,-2.218414 4.6046603,-1.97788 3.04838,-2.417544 -6.9899303,-3.640694 -1.4441403,-5.073364 2.5575103,2.138218 7.2693503,4.166642 7.8025803,-0.72307 -0.0753,-3.786577 5.3779,-8.239841 8.8878,-4.056311 2.46306,1.818793 1.75271,7.873564 -1.02944,7.264162 0.9428,-2.935703 -2.47082,-9.331224 -5.13281,-3.990365 -1.94109,4.809965 2.58342,8.051736 7.42393,8.844686 4.17772,-0.229462 11.51194,3.670063 12.339,-1.970984 -0.003,-4.51378 4.28357,-7.200172 6.00605,-11.179909 4.78045,-1.773711 4.2653,-7.066318 3.48602,-10.95951 -2.26791,-6.262421 -6.6774,4.343043 -11.08384,0.531512 -6.46151,-2.247985 -4.33782,-10.078245 1.56468,-11.646583 4.27266,-1.308543 9.81352,7.895492 10.1794,0.874862 -0.68532,-4.274246 -5.30678,-6.8399 -7.19608,-10.641197 1.75331,-3.4163971 5.56265,0.8032496 5.73615,2.6800315 1.65426,-1.1568014 2.67243,-7.4753796 3.91662,-3.1116659 -1.17622,2.7055094 0.41376,9.3021014 3.5117,4.2357384 1.01505,-1.9498275 4.08098,-2.7453076 1.7185,-0.0067 -2.06948,1.871084 -5.9637,6.681779 -4.21156,7.995199 3.62237,-2.953764 9.87878,-2.331039 10.71935,2.36764 1.96607,2.678039 -4.61993,9.083422 -5.03494,4.619565 4.09116,-1.584877 5.12711,-6.715116 -0.6463,-6.826808 -6.6487,1.58494 -4.58816,8.762432 -6.33702,13.120727 -1.57609,5.955765 7.23129,5.85176 10.01739,9.816504 3.53838,2.396455 2.31835,9.622947 8.44211,8.602954 4.2768,1.412162 8.37975,-0.811579 11.34736,-3.875553 3.84232,-3.584588 -4.37003,-9.271715 -6.0915,-4.026888 -0.0131,5.616084 -4.00099,-3.147822 0.0385,-3.719786 3.11906,-3.080461 8.06105,1.046941 9.1226,3.789687 -1.38073,3.45497 0.94913,8.617002 5.49564,4.747958 0.79602,-1.47171 6.32527,-5.944846 4.78948,-2.185308 -4.12178,0.562625 -9.45259,6.187957 -2.92957,7.216104 4.16511,-1.181297 2.10986,2.118391 -0.66143,2.450728 -2.42414,0.879459 2.08452,5.524571 -1.71451,3.168687 -1.0147,-2.636734 -7.32069,-7.718143 -7.27039,-2.145233 1.03347,3.791303 -1.16073,12.342699 -7.46048,9.211771 -5.20285,-3.170141 3.52415,-9.906765 -2.85043,-11.558387 -4.41034,-0.844096 -8.17887,0.828296 -8.85312,4.779798 -1.83541,2.934342 -5.40734,4.454447 -7.99995,6.832563 -1.67007,4.433059 -1.63582,9.464966 -0.21612,13.956746 1.80908,4.634138 8.17297,3.009469 9.64926,-0.696213 -0.50815,-2.235514 -6.73047,0.190907 -4.34253,-3.247178 5.09307,-3.980179 8.95436,4.978375 3.70631,7.21947 -1.8408,2.705311 -5.68018,2.789637 -7.51771,0.74833 -1.07214,2.747011 0.82478,5.934962 2.68141,7.52509 -2.5991,0.252319 -4.90708,-3.316895 -4.97101,0.736553 -0.24501,0.948913 -0.58851,3.696545 -2.39371,2.430941 z m -2.04027,-31.318421 c 5.42441,-0.308944 11.85341,-2.795023 12.39732,-7.980992 0.45663,-4.402 0.98972,-9.786109 -3.9272,-12.636262 -3.29909,-2.188513 -9.93843,-3.004013 -12.17251,0.685964 -2.71344,3.498981 -6.47861,7.723511 -4.27535,12.209372 0.50485,3.495474 1.96607,10.573883 7.97774,7.721918 z m -0.0468,-3.471312 c -5.64746,-1.338433 -5.89176,-7.473371 -3.77374,-11.255392 1.66871,-5.475246 10.3288,-6.244388 12.13067,-0.387773 2.83919,3.904701 0.88043,9.066609 -3.76231,11.178957 -1.38511,0.665783 -3.06313,0.798862 -4.59462,0.464208 z m 4.39131,-3.291926 c 3.67547,-2.542339 2.13203,-11.610737 -3.722,-8.871999 -1.94176,2.185066 0.56358,3.165851 2.40571,2.081823 4.79661,3.001947 -8.82099,5.515582 -1.93548,7.453432 1.12667,0.08241 2.30983,-0.104378 3.25177,-0.663256 z m 24.8127,6.767206 c 1.66823,-2.848375 0.19739,-8.790936 -2.49384,-3.580538 -0.73786,1.489168 -0.19934,5.384988 2.49384,3.580538 z M 43.372597,25.775177 c 6.44239,-2.856831 -5.43387,-10.368366 -6.32,-3.112781 -0.86978,3.078527 3.59655,4.686994 6.32,3.112781 z m -18.12482,36.488015 c -2.96301,-2.218647 1.74232,-5.36405 2.02963,-1.357357 0.59583,1.668746 -0.57368,4.200818 -2.02963,1.357357 z"/>
</g>
</g>
<g transform="translate(1605.9803339999999 2286.377972)">
<g transform="scale(5.6692914) " id="mtf10">
<path d="m 44.316567,94.261762 c 0.84701,-1.679944 3.66374,-4.740596 3.22046,-1.020181 -0.20717,0.958642 -2.77266,2.782927 -3.22046,1.020181 z m 7.38118,-0.459629 c -0.73085,-1.149043 -0.67651,-5.335211 -3.14781,-3.219807 -0.62142,-2.206632 2.30131,-6.359118 -2.45153,-4.483482 -5.40312,0.428937 -10.42198,-5.51969 -6.18741,-9.213107 1.40689,-2.491887 7.38777,-1.615451 6.4308,0.769462 -5.43312,-3.131788 -7.60241,5.318197 -1.84907,5.713457 4.71268,-0.06786 7.31973,-4.601443 7.27272,-8.310471 0.55552,-4.250004 0.33944,-11.131273 -6.67822,-9.888938 -5.05487,-1.775414 -5.53297,-6.861291 -6.69617,-10.471656 -3.96584,2.215102 -7.75171,-1.887941 -12.45646,-0.728829 -4.72057,-1.320765 -8.64684,2.030461 -8.81741,5.953966 -1.86138,5.147372 4.90793,4.043599 7.69549,5.763257 -2.66994,4.658993 -8.73729,0.126434 -10.00322,-3.259791 -2.68165,-2.699211 4.03629,-7.720025 0.62705,-8.791047 -1.07863,1.439988 -7.4142303,8.017197 -5.22621,2.830426 2.58237,-2.823222 -1.0206903,-5.481484 -4.3104803,-4.81255 -1.74833,-3.163325 2.68898,-2.218414 4.6046603,-1.97788 3.04838,-2.417544 -6.9899303,-3.640694 -1.4441403,-5.073364 2.5575103,2.138218 7.2693503,4.166642 7.8025803,-0.72307 -0.0753,-3.786577 5.3779,-8.239841 8.8878,-4.056311 2.46306,1.818793 1.75271,7.873564 -1.02944,7.264162 0.9428,-2.935703 -2.47082,-9.331224 -5.13281,-3.990365 -1.94109,4.809965 2.58342,8.051736 7.42393,8.844686 4.17772,-0.229462 11.51194,3.670063 12.339,-1.970984 -0.003,-4.51378 4.28357,-7.200172 6.00605,-11.179909 4.78045,-1.773711 4.2653,-7.066318 3.48602,-10.95951 -2.26791,-6.262421 -6.6774,4.343043 -11.08384,0.531512 -6.46151,-2.247985 -4.33782,-10.078245 1.56468,-11.646583 4.27266,-1.308543 9.81352,7.895492 10.1794,0.874862 -0.68532,-4.274246 -5.30678,-6.8399 -7.19608,-10.641197 1.75331,-3.4163971 5.56265,0.8032496 5.73615,2.6800315 1.65426,-1.1568014 2.67243,-7.4753796 3.91662,-3.1116659 -1.17622,2.7055094 0.41376,9.3021014 3.5117,4.2357384 1.01505,-1.9498275 4.08098,-2.7453076 1.7185,-0.0067 -2.06948,1.871084 -5.9637,6.681779 -4.21156,7.995199 3.62237,-2.953764 9.87878,-2.331039 10.71935,2.36764 1.96607,2.678039 -4.61993,9.083422 -5.03494,4.619565 4.09116,-1.584877 5.12711,-6.715116 -0.6463,-6.826808 -6.6487,1.58494 -4.58816,8.762432 -6.33702,13.120727 -1.57609,5.955765 7.23129,5.85176 10.01739,9.816504 3.53838,2.396455 2.31835,9.622947 8.44211,8.602954 4.2768,1.412162 8.37975,-0.811579 11.34736,-3.875553 3.84232,-3.584588 -4.37003,-9.271715 -6.0915,-4.026888 -0.0131,5.616084 -4.00099,-3.147822 0.0385,-3.719786 3.11906,-3.080461 8.06105,1.046941 9.1226,3.789687 -1.38073,3.45497 0.94913,8.617002 5.49564,4.747958 0.79602,-1.47171 6.32527,-5.944846 4.78948,-2.185308 -4.12178,0.562625 -9.45259,6.187957 -2.92957,7.216104 4.16511,-1.181297 2.10986,2.118391 -0.66143,2.450728 -2.42414,0.879459 2.08452,5.524571 -1.71451,3.168687 -1.0147,-2.636734 -7.32069,-7.718143 -7.27039,-2.145233 1.03347,3.791303 -1.16073,12.342699 -7.46048,9.211771 -5.20285,-3.170141 3.52415,-9.906765 -2.85043,-11.558387 -4.41034,-0.844096 -8.17887,0.828296 -8.85312,4.779798 -1.83541,2.934342 -5.40734,4.454447 -7.99995,6.832563 -1.67007,4.433059 -1.63582,9.464966 -0.21612,13.956746 1.80908,4.634138 8.17297,3.009469 9.64926,-0.696213 -0.50815,-2.235514 -6.73047,0.190907 -4.34253,-3.247178 5.09307,-3.980179 8.95436,4.978375 3.70631,7.21947 -1.8408,2.705311 -5.68018,2.789637 -7.51771,0.74833 -1.07214,2.747011 0.82478,5.934962 2.68141,7.52509 -2.5991,0.252319 -4.90708,-3.316895 -4.97101,0.736553 -0.24501,0.948913 -0.58851,3.696545 -2.39371,2.430941 z m -2.04027,-31.318421 c 5.42441,-0.308944 11.85341,-2.795023 12.39732,-7.980992 0.45663,-4.402 0.98972,-9.786109 -3.9272,-12.636262 -3.29909,-2.188513 -9.93843,-3.004013 -12.17251,0.685964 -2.71344,3.498981 -6.47861,7.723511 -4.27535,12.209372 0.50485,3.495474 1.96607,10.573883 7.97774,7.721918 z m -0.0468,-3.471312 c -5.64746,-1.338433 -5.89176,-7.473371 -3.77374,-11.255392 1.66871,-5.475246 10.3288,-6.244388 12.13067,-0.387773 2.83919,3.904701 0.88043,9.066609 -3.76231,11.178957 -1.38511,0.665783 -3.06313,0.798862 -4.59462,0.464208 z m 4.39131,-3.291926 c 3.67547,-2.542339 2.13203,-11.610737 -3.722,-8.871999 -1.94176,2.185066 0.56358,3.165851 2.40571,2.081823 4.79661,3.001947 -8.82099,5.515582 -1.93548,7.453432 1.12667,0.08241 2.30983,-0.104378 3.25177,-0.663256 z m 24.8127,6.767206 c 1.66823,-2.848375 0.19739,-8.790936 -2.49384,-3.580538 -0.73786,1.489168 -0.19934,5.384988 2.49384,3.580538 z M 43.372597,25.775177 c 6.44239,-2.856831 -5.43387,-10.368366 -6.32,-3.112781 -0.86978,3.078527 3.59655,4.686994 6.32,3.112781 z m -18.12482,36.488015 c -2.96301,-2.218647 1.74232,-5.36405 2.02963,-1.357357 0.59583,1.668746 -0.57368,4.200818 -2.02963,1.357357 z"/>
</g>
</g>
<g transform="translate(962.9803339999999 2286.377972)">
<g transform="scale(5.6692914) " id="mtf11">
<path d="m 44.316567,94.261762 c 0.84701,-1.679944 3.66374,-4.740596 3.22046,-1.020181 -0.20717,0.958642 -2.77266,2.782927 -3.22046,1.020181 z m 7.38118,-0.459629 c -0.73085,-1.149043 -0.67651,-5.335211 -3.14781,-3.219807 -0.62142,-2.206632 2.30131,-6.359118 -2.45153,-4.483482 -5.40312,0.428937 -10.42198,-5.51969 -6.18741,-9.213107 1.40689,-2.491887 7.38777,-1.615451 6.4308,0.769462 -5.43312,-3.131788 -7.60241,5.318197 -1.84907,5.713457 4.71268,-0.06786 7.31973,-4.601443 7.27272,-8.310471 0.55552,-4.250004 0.33944,-11.131273 -6.67822,-9.888938 -5.05487,-1.775414 -5.53297,-6.861291 -6.69617,-10.471656 -3.96584,2.215102 -7.75171,-1.887941 -12.45646,-0.728829 -4.72057,-1.320765 -8.64684,2.030461 -8.81741,5.953966 -1.86138,5.147372 4.90793,4.043599 7.69549,5.763257 -2.66994,4.658993 -8.73729,0.126434 -10.00322,-3.259791 -2.68165,-2.699211 4.03629,-7.720025 0.62705,-8.791047 -1.07863,1.439988 -7.4142303,8.017197 -5.22621,2.830426 2.58237,-2.823222 -1.0206903,-5.481484 -4.3104803,-4.81255 -1.74833,-3.163325 2.68898,-2.218414 4.6046603,-1.97788 3.04838,-2.417544 -6.9899303,-3.640694 -1.4441403,-5.073364 2.5575103,2.138218 7.2693503,4.166642 7.8025803,-0.72307 -0.0753,-3.786577 5.3779,-8.239841 8.8878,-4.056311 2.46306,1.818793 1.75271,7.873564 -1.02944,7.264162 0.9428,-2.935703 -2.47082,-9.331224 -5.13281,-3.990365 -1.94109,4.809965 2.58342,8.051736 7.42393,8.844686 4.17772,-0.229462 11.51194,3.670063 12.339,-1.970984 -0.003,-4.51378 4.28357,-7.200172 6.00605,-11.179909 4.78045,-1.773711 4.2653,-7.066318 3.48602,-10.95951 -2.26791,-6.262421 -6.6774,4.343043 -11.08384,0.531512 -6.46151,-2.247985 -4.33782,-10.078245 1.56468,-11.646583 4.27266,-1.308543 9.81352,7.895492 10.1794,0.874862 -0.68532,-4.274246 -5.30678,-6.8399 -7.19608,-10.641197 1.75331,-3.4163971 5.56265,0.8032496 5.73615,2.6800315 1.65426,-1.1568014 2.67243,-7.4753796 3.91662,-3.1116659 -1.17622,2.7055094 0.41376,9.3021014 3.5117,4.2357384 1.01505,-1.9498275 4.08098,-2.7453076 1.7185,-0.0067 -2.06948,1.871084 -5.9637,6.681779 -4.21156,7.995199 3.62237,-2.953764 9.87878,-2.331039 10.71935,2.36764 1.96607,2.678039 -4.61993,9.083422 -5.03494,4.619565 4.09116,-1.584877 5.12711,-6.715116 -0.6463,-6.826808 -6.6487,1.58494 -4.58816,8.762432 -6.33702,13.120727 -1.57609,5.955765 7.23129,5.85176 10.01739,9.816504 3.53838,2.396455 2.31835,9.622947 8.44211,8.602954 4.2768,1.412162 8.37975,-0.811579 11.34736,-3.875553 3.84232,-3.584588 -4.37003,-9.271715 -6.0915,-4.026888 -0.0131,5.616084 -4.00099,-3.147822 0.0385,-3.719786 3.11906,-3.080461 8.06105,1.046941 9.1226,3.789687 -1.38073,3.45497 0.94913,8.617002 5.49564,4.747958 0.79602,-1.47171 6.32527,-5.944846 4.78948,-2.185308 -4.12178,0.562625 -9.45259,6.187957 -2.92957,7.216104 4.16511,-1.181297 2.10986,2.118391 -0.66143,2.450728 -2.42414,0.879459 2.08452,5.524571 -1.71451,3.168687 -1.0147,-2.636734 -7.32069,-7.718143 -7.27039,-2.145233 1.03347,3.791303 -1.16073,12.342699 -7.46048,9.211771 -5.20285,-3.170141 3.52415,-9.906765 -2.85043,-11.558387 -4.41034,-0.844096 -8.17887,0.828296 -8.85312,4.779798 -1.83541,2.934342 -5.40734,4.454447 -7.99995,6.832563 -1.67007,4.433059 -1.63582,9.464966 -0.21612,13.956746 1.80908,4.634138 8.17297,3.009469 9.64926,-0.696213 -0.50815,-2.235514 -6.73047,0.190907 -4.34253,-3.247178 5.09307,-3.980179 8.95436,4.978375 3.70631,7.21947 -1.8408,2.705311 -5.68018,2.789637 -7.51771,0.74833 -1.07214,2.747011 0.82478,5.934962 2.68141,7.52509 -2.5991,0.252319 -4.90708,-3.316895 -4.97101,0.736553 -0.24501,0.948913 -0.58851,3.696545 -2.39371,2.430941 z m -2.04027,-31.318421 c 5.42441,-0.308944 11.85341,-2.795023 12.39732,-7.980992 0.45663,-4.402 0.98972,-9.786109 -3.9272,-12.636262 -3.29909,-2.188513 -9.93843,-3.004013 -12.17251,0.685964 -2.71344,3.498981 -6.47861,7.723511 -4.27535,12.209372 0.50485,3.495474 1.96607,10.573883 7.97774,7.721918 z m -0.0468,-3.471312 c -5.64746,-1.338433 -5.89176,-7.473371 -3.77374,-11.255392 1.66871,-5.475246 10.3288,-6.244388 12.13067,-0.387773 2.83919,3.904701 0.88043,9.066609 -3.76231,11.178957 -1.38511,0.665783 -3.06313,0.798862 -4.59462,0.464208 z m 4.39131,-3.291926 c 3.67547,-2.542339 2.13203,-11.610737 -3.722,-8.871999 -1.94176,2.185066 0.56358,3.165851 2.40571,2.081823 4.79661,3.001947 -8.82099,5.515582 -1.93548,7.453432 1.12667,0.08241 2.30983,-0.104378 3.25177,-0.663256 z m 24.8127,6.767206 c 1.66823,-2.848375 0.19739,-8.790936 -2.49384,-3.580538 -0.73786,1.489168 -0.19934,5.384988 2.49384,3.580538 z M 43.372597,25.775177 c 6.44239,-2.856831 -5.43387,-10.368366 -6.32,-3.112781 -0.86978,3.078527 3.59655,4.686994 6.32,3.112781 z m -18.12482,36.488015 c -2.96301,-2.218647 1.74232,-5.36405 2.02963,-1.357357 0.59583,1.668746 -0.57368,4.200818 -2.02963,1.357357 z"/>
</g>
</g>
<g transform="translate(319.98033399999986 2286.377972)">
<g transform="scale(5.6692914) " id="mtf12">
<path d="m 44.316567,94.261762 c 0.84701,-1.679944 3.66374,-4.740596 3.22046,-1.020181 -0.20717,0.958642 -2.77266,2.782927 -3.22046,1.020181 z m 7.38118,-0.459629 c -0.73085,-1.149043 -0.67651,-5.335211 -3.14781,-3.219807 -0.62142,-2.206632 2.30131,-6.359118 -2.45153,-4.483482 -5.40312,0.428937 -10.42198,-5.51969 -6.18741,-9.213107 1.40689,-2.491887 7.38777,-1.615451 6.4308,0.769462 -5.43312,-3.131788 -7.60241,5.318197 -1.84907,5.713457 4.71268,-0.06786 7.31973,-4.601443 7.27272,-8.310471 0.55552,-4.250004 0.33944,-11.131273 -6.67822,-9.888938 -5.05487,-1.775414 -5.53297,-6.861291 -6.69617,-10.471656 -3.96584,2.215102 -7.75171,-1.887941 -12.45646,-0.728829 -4.72057,-1.320765 -8.64684,2.030461 -8.81741,5.953966 -1.86138,5.147372 4.90793,4.043599 7.69549,5.763257 -2.66994,4.658993 -8.73729,0.126434 -10.00322,-3.259791 -2.68165,-2.699211 4.03629,-7.720025 0.62705,-8.791047 -1.07863,1.439988 -7.4142303,8.017197 -5.22621,2.830426 2.58237,-2.823222 -1.0206903,-5.481484 -4.3104803,-4.81255 -1.74833,-3.163325 2.68898,-2.218414 4.6046603,-1.97788 3.04838,-2.417544 -6.9899303,-3.640694 -1.4441403,-5.073364 2.5575103,2.138218 7.2693503,4.166642 7.8025803,-0.72307 -0.0753,-3.786577 5.3779,-8.239841 8.8878,-4.056311 2.46306,1.818793 1.75271,7.873564 -1.02944,7.264162 0.9428,-2.935703 -2.47082,-9.331224 -5.13281,-3.990365 -1.94109,4.809965 2.58342,8.051736 7.42393,8.844686 4.17772,-0.229462 11.51194,3.670063 12.339,-1.970984 -0.003,-4.51378 4.28357,-7.200172 6.00605,-11.179909 4.78045,-1.773711 4.2653,-7.066318 3.48602,-10.95951 -2.26791,-6.262421 -6.6774,4.343043 -11.08384,0.531512 -6.46151,-2.247985 -4.33782,-10.078245 1.56468,-11.646583 4.27266,-1.308543 9.81352,7.895492 10.1794,0.874862 -0.68532,-4.274246 -5.30678,-6.8399 -7.19608,-10.641197 1.75331,-3.4163971 5.56265,0.8032496 5.73615,2.6800315 1.65426,-1.1568014 2.67243,-7.4753796 3.91662,-3.1116659 -1.17622,2.7055094 0.41376,9.3021014 3.5117,4.2357384 1.01505,-1.9498275 4.08098,-2.7453076 1.7185,-0.0067 -2.06948,1.871084 -5.9637,6.681779 -4.21156,7.995199 3.62237,-2.953764 9.87878,-2.331039 10.71935,2.36764 1.96607,2.678039 -4.61993,9.083422 -5.03494,4.619565 4.09116,-1.584877 5.12711,-6.715116 -0.6463,-6.826808 -6.6487,1.58494 -4.58816,8.762432 -6.33702,13.120727 -1.57609,5.955765 7.23129,5.85176 10.01739,9.816504 3.53838,2.396455 2.31835,9.622947 8.44211,8.602954 4.2768,1.412162 8.37975,-0.811579 11.34736,-3.875553 3.84232,-3.584588 -4.37003,-9.271715 -6.0915,-4.026888 -0.0131,5.616084 -4.00099,-3.147822 0.0385,-3.719786 3.11906,-3.080461 8.06105,1.046941 9.1226,3.789687 -1.38073,3.45497 0.94913,8.617002 5.49564,4.747958 0.79602,-1.47171 6.32527,-5.944846 4.78948,-2.185308 -4.12178,0.562625 -9.45259,6.187957 -2.92957,7.216104 4.16511,-1.181297 2.10986,2.118391 -0.66143,2.450728 -2.42414,0.879459 2.08452,5.524571 -1.71451,3.168687 -1.0147,-2.636734 -7.32069,-7.718143 -7.27039,-2.145233 1.03347,3.791303 -1.16073,12.342699 -7.46048,9.211771 -5.20285,-3.170141 3.52415,-9.906765 -2.85043,-11.558387 -4.41034,-0.844096 -8.17887,0.828296 -8.85312,4.779798 -1.83541,2.934342 -5.40734,4.454447 -7.99995,6.832563 -1.67007,4.433059 -1.63582,9.464966 -0.21612,13.956746 1.80908,4.634138 8.17297,3.009469 9.64926,-0.696213 -0.50815,-2.235514 -6.73047,0.190907 -4.34253,-3.247178 5.09307,-3.980179 8.95436,4.978375 3.70631,7.21947 -1.8408,2.705311 -5.68018,2.789637 -7.51771,0.74833 -1.07214,2.747011 0.82478,5.934962 2.68141,7.52509 -2.5991,0.252319 -4.90708,-3.316895 -4.97101,0.736553 -0.24501,0.948913 -0.58851,3.696545 -2.39371,2.430941 z m -2.04027,-31.318421 c 5.42441,-0.308944 11.85341,-2.795023 12.39732,-7.980992 0.45663,-4.402 0.98972,-9.786109 -3.9272,-12.636262 -3.29909,-2.188513 -9.93843,-3.004013 -12.17251,0.685964 -2.71344,3.498981 -6.47861,7.723511 -4.27535,12.209372 0.50485,3.495474 1.96607,10.573883 7.97774,7.721918 z m -0.0468,-3.471312 c -5.64746,-1.338433 -5.89176,-7.473371 -3.77374,-11.255392 1.66871,-5.475246 10.3288,-6.244388 12.13067,-0.387773 2.83919,3.904701 0.88043,9.066609 -3.76231,11.178957 -1.38511,0.665783 -3.06313,0.798862 -4.59462,0.464208 z m 4.39131,-3.291926 c 3.67547,-2.542339 2.13203,-11.610737 -3.722,-8.871999 -1.94176,2.185066 0.56358,3.165851 2.40571,2.081823 4.79661,3.001947 -8.82099,5.515582 -1.93548,7.453432 1.12667,0.08241 2.30983,-0.104378 3.25177,-0.663256 z m 24.8127,6.767206 c 1.66823,-2.848375 0.19739,-8.790936 -2.49384,-3.580538 -0.73786,1.489168 -0.19934,5.384988 2.49384,3.580538 z M 43.372597,25.775177 c 6.44239,-2.856831 -5.43387,-10.368366 -6.32,-3.112781 -0.86978,3.078527 3.59655,4.686994 6.32,3.112781 z m -18.12482,36.488015 c -2.96301,-2.218647 1.74232,-5.36405 2.02963,-1.357357 0.59583,1.668746 -0.57368,4.200818 -2.02963,1.357357 z"/>
</g>
</g>
<g transform="translate(319.98033399999986 1606.3779720000002)">
<g transform="scale(5.6692914) " id="mtf13">
<path d="m 44.316567,94.261762 c 0.84701,-1.679944 3.66374,-4.740596 3.22046,-1.020181 -0.20717,0.958642 -2.77266,2.782927 -3.22046,1.020181 z m 7.38118,-0.459629 c -0.73085,-1.149043 -0.67651,-5.335211 -3.14781,-3.219807 -0.62142,-2.206632 2.30131,-6.359118 -2.45153,-4.483482 -5.40312,0.428937 -10.42198,-5.51969 -6.18741,-9.213107 1.40689,-2.491887 7.38777,-1.615451 6.4308,0.769462 -5.43312,-3.131788 -7.60241,5.318197 -1.84907,5.713457 4.71268,-0.06786 7.31973,-4.601443 7.27272,-8.310471 0.55552,-4.250004 0.33944,-11.131273 -6.67822,-9.888938 -5.05487,-1.775414 -5.53297,-6.861291 -6.69617,-10.471656 -3.96584,2.215102 -7.75171,-1.887941 -12.45646,-0.728829 -4.72057,-1.320765 -8.64684,2.030461 -8.81741,5.953966 -1.86138,5.147372 4.90793,4.043599 7.69549,5.763257 -2.66994,4.658993 -8.73729,0.126434 -10.00322,-3.259791 -2.68165,-2.699211 4.03629,-7.720025 0.62705,-8.791047 -1.07863,1.439988 -7.4142303,8.017197 -5.22621,2.830426 2.58237,-2.823222 -1.0206903,-5.481484 -4.3104803,-4.81255 -1.74833,-3.163325 2.68898,-2.218414 4.6046603,-1.97788 3.04838,-2.417544 -6.9899303,-3.640694 -1.4441403,-5.073364 2.5575103,2.138218 7.2693503,4.166642 7.8025803,-0.72307 -0.0753,-3.786577 5.3779,-8.239841 8.8878,-4.056311 2.46306,1.818793 1.75271,7.873564 -1.02944,7.264162 0.9428,-2.935703 -2.47082,-9.331224 -5.13281,-3.990365 -1.94109,4.809965 2.58342,8.051736 7.42393,8.844686 4.17772,-0.229462 11.51194,3.670063 12.339,-1.970984 -0.003,-4.51378 4.28357,-7.200172 6.00605,-11.179909 4.78045,-1.773711 4.2653,-7.066318 3.48602,-10.95951 -2.26791,-6.262421 -6.6774,4.343043 -11.08384,0.531512 -6.46151,-2.247985 -4.33782,-10.078245 1.56468,-11.646583 4.27266,-1.308543 9.81352,7.895492 10.1794,0.874862 -0.68532,-4.274246 -5.30678,-6.8399 -7.19608,-10.641197 1.75331,-3.4163971 5.56265,0.8032496 5.73615,2.6800315 1.65426,-1.1568014 2.67243,-7.4753796 3.91662,-3.1116659 -1.17622,2.7055094 0.41376,9.3021014 3.5117,4.2357384 1.01505,-1.9498275 4.08098,-2.7453076 1.7185,-0.0067 -2.06948,1.871084 -5.9637,6.681779 -4.21156,7.995199 3.62237,-2.953764 9.87878,-2.331039 10.71935,2.36764 1.96607,2.678039 -4.61993,9.083422 -5.03494,4.619565 4.09116,-1.584877 5.12711,-6.715116 -0.6463,-6.826808 -6.6487,1.58494 -4.58816,8.762432 -6.33702,13.120727 -1.57609,5.955765 7.23129,5.85176 10.01739,9.816504 3.53838,2.396455 2.31835,9.622947 8.44211,8.602954 4.2768,1.412162 8.37975,-0.811579 11.34736,-3.875553 3.84232,-3.584588 -4.37003,-9.271715 -6.0915,-4.026888 -0.0131,5.616084 -4.00099,-3.147822 0.0385,-3.719786 3.11906,-3.080461 8.06105,1.046941 9.1226,3.789687 -1.38073,3.45497 0.94913,8.617002 5.49564,4.747958 0.79602,-1.47171 6.32527,-5.944846 4.78948,-2.185308 -4.12178,0.562625 -9.45259,6.187957 -2.92957,7.216104 4.16511,-1.181297 2.10986,2.118391 -0.66143,2.450728 -2.42414,0.879459 2.08452,5.524571 -1.71451,3.168687 -1.0147,-2.636734 -7.32069,-7.718143 -7.27039,-2.145233 1.03347,3.791303 -1.16073,12.342699 -7.46048,9.211771 -5.20285,-3.170141 3.52415,-9.906765 -2.85043,-11.558387 -4.41034,-0.844096 -8.17887,0.828296 -8.85312,4.779798 -1.83541,2.934342 -5.40734,4.454447 -7.99995,6.832563 -1.67007,4.433059 -1.63582,9.464966 -0.21612,13.956746 1.80908,4.634138 8.17297,3.009469 9.64926,-0.696213 -0.50815,-2.235514 -6.73047,0.190907 -4.34253,-3.247178 5.09307,-3.980179 8.95436,4.978375 3.70631,7.21947 -1.8408,2.705311 -5.68018,2.789637 -7.51771,0.74833 -1.07214,2.747011 0.82478,5.934962 2.68141,7.52509 -2.5991,0.252319 -4.90708,-3.316895 -4.97101,0.736553 -0.24501,0.948913 -0.58851,3.696545 -2.39371,2.430941 z m -2.04027,-31.318421 c 5.42441,-0.308944 11.85341,-2.795023 12.39732,-7.980992 0.45663,-4.402 0.98972,-9.786109 -3.9272,-12.636262 -3.29909,-2.188513 -9.93843,-3.004013 -12.17251,0.685964 -2.71344,3.498981 -6.47861,7.723511 -4.27535,12.209372 0.50485,3.495474 1.96607,10.573883 7.97774,7.721918 z m -0.0468,-3.471312 c -5.64746,-1.338433 -5.89176,-7.473371 -3.77374,-11.255392 1.66871,-5.475246 10.3288,-6.244388 12.13067,-0.387773 2.83919,3.904701 0.88043,9.066609 -3.76231,11.178957 -1.38511,0.665783 -3.06313,0.798862 -4.59462,0.464208 z m 4.39131,-3.291926 c 3.67547,-2.542339 2.13203,-11.610737 -3.722,-8.871999 -1.94176,2.185066 0.56358,3.165851 2.40571,2.081823 4.79661,3.001947 -8.82099,5.515582 -1.93548,7.453432 1.12667,0.08241 2.30983,-0.104378 3.25177,-0.663256 z m 24.8127,6.767206 c 1.66823,-2.848375 0.19739,-8.790936 -2.49384,-3.580538 -0.73786,1.489168 -0.19934,5.384988 2.49384,3.580538 z M 43.372597,25.775177 c 6.44239,-2.856831 -5.43387,-10.368366 -6.32,-3.112781 -0.86978,3.078527 3.59655,4.686994 6.32,3.112781 z m -18.12482,36.488015 c -2.96301,-2.218647 1.74232,-5.36405 2.02963,-1.357357 0.59583,1.668746 -0.57368,4.200818 -2.02963,1.357357 z"/>
</g>
</g>
<g transform="translate(319.98033399999986 926.3779720000002)">
<g transform="scale(5.6692914) " id="mtf14">
<path d="m 44.316567,94.261762 c 0.84701,-1.679944 3.66374,-4.740596 3.22046,-1.020181 -0.20717,0.958642 -2.77266,2.782927 -3.22046,1.020181 z m 7.38118,-0.459629 c -0.73085,-1.149043 -0.67651,-5.335211 -3.14781,-3.219807 -0.62142,-2.206632 2.30131,-6.359118 -2.45153,-4.483482 -5.40312,0.428937 -10.42198,-5.51969 -6.18741,-9.213107 1.40689,-2.491887 7.38777,-1.615451 6.4308,0.769462 -5.43312,-3.131788 -7.60241,5.318197 -1.84907,5.713457 4.71268,-0.06786 7.31973,-4.601443 7.27272,-8.310471 0.55552,-4.250004 0.33944,-11.131273 -6.67822,-9.888938 -5.05487,-1.775414 -5.53297,-6.861291 -6.69617,-10.471656 -3.96584,2.215102 -7.75171,-1.887941 -12.45646,-0.728829 -4.72057,-1.320765 -8.64684,2.030461 -8.81741,5.953966 -1.86138,5.147372 4.90793,4.043599 7.69549,5.763257 -2.66994,4.658993 -8.73729,0.126434 -10.00322,-3.259791 -2.68165,-2.699211 4.03629,-7.720025 0.62705,-8.791047 -1.07863,1.439988 -7.4142303,8.017197 -5.22621,2.830426 2.58237,-2.823222 -1.0206903,-5.481484 -4.3104803,-4.81255 -1.74833,-3.163325 2.68898,-2.218414 4.6046603,-1.97788 3.04838,-2.417544 -6.9899303,-3.640694 -1.4441403,-5.073364 2.5575103,2.138218 7.2693503,4.166642 7.8025803,-0.72307 -0.0753,-3.786577 5.3779,-8.239841 8.8878,-4.056311 2.46306,1.818793 1.75271,7.873564 -1.02944,7.264162 0.9428,-2.935703 -2.47082,-9.331224 -5.13281,-3.990365 -1.94109,4.809965 2.58342,8.051736 7.42393,8.844686 4.17772,-0.229462 11.51194,3.670063 12.339,-1.970984 -0.003,-4.51378 4.28357,-7.200172 6.00605,-11.179909 4.78045,-1.773711 4.2653,-7.066318 3.48602,-10.95951 -2.26791,-6.262421 -6.6774,4.343043 -11.08384,0.531512 -6.46151,-2.247985 -4.33782,-10.078245 1.56468,-11.646583 4.27266,-1.308543 9.81352,7.895492 10.1794,0.874862 -0.68532,-4.274246 -5.30678,-6.8399 -7.19608,-10.641197 1.75331,-3.4163971 5.56265,0.8032496 5.73615,2.6800315 1.65426,-1.1568014 2.67243,-7.4753796 3.91662,-3.1116659 -1.17622,2.7055094 0.41376,9.3021014 3.5117,4.2357384 1.01505,-1.9498275 4.08098,-2.7453076 1.7185,-0.0067 -2.06948,1.871084 -5.9637,6.681779 -4.21156,7.995199 3.62237,-2.953764 9.87878,-2.331039 10.71935,2.36764 1.96607,2.678039 -4.61993,9.083422 -5.03494,4.619565 4.09116,-1.584877 5.12711,-6.715116 -0.6463,-6.826808 -6.6487,1.58494 -4.58816,8.762432 -6.33702,13.120727 -1.57609,5.955765 7.23129,5.85176 10.01739,9.816504 3.53838,2.396455 2.31835,9.622947 8.44211,8.602954 4.2768,1.412162 8.37975,-0.811579 11.34736,-3.875553 3.84232,-3.584588 -4.37003,-9.271715 -6.0915,-4.026888 -0.0131,5.616084 -4.00099,-3.147822 0.0385,-3.719786 3.11906,-3.080461 8.06105,1.046941 9.1226,3.789687 -1.38073,3.45497 0.94913,8.617002 5.49564,4.747958 0.79602,-1.47171 6.32527,-5.944846 4.78948,-2.185308 -4.12178,0.562625 -9.45259,6.187957 -2.92957,7.216104 4.16511,-1.181297 2.10986,2.118391 -0.66143,2.450728 -2.42414,0.879459 2.08452,5.524571 -1.71451,3.168687 -1.0147,-2.636734 -7.32069,-7.718143 -7.27039,-2.145233 1.03347,3.791303 -1.16073,12.342699 -7.46048,9.211771 -5.20285,-3.170141 3.52415,-9.906765 -2.85043,-11.558387 -4.41034,-0.844096 -8.17887,0.828296 -8.85312,4.779798 -1.83541,2.934342 -5.40734,4.454447 -7.99995,6.832563 -1.67007,4.433059 -1.63582,9.464966 -0.21612,13.956746 1.80908,4.634138 8.17297,3.009469 9.64926,-0.696213 -0.50815,-2.235514 -6.73047,0.190907 -4.34253,-3.247178 5.09307,-3.980179 8.95436,4.978375 3.70631,7.21947 -1.8408,2.705311 -5.68018,2.789637 -7.51771,0.74833 -1.07214,2.747011 0.82478,5.934962 2.68141,7.52509 -2.5991,0.252319 -4.90708,-3.316895 -4.97101,0.736553 -0.24501,0.948913 -0.58851,3.696545 -2.39371,2.430941 z m -2.04027,-31.318421 c 5.42441,-0.308944 11.85341,-2.795023 12.39732,-7.980992 0.45663,-4.402 0.98972,-9.786109 -3.9272,-12.636262 -3.29909,-2.188513 -9.93843,-3.004013 -12.17251,0.685964 -2.71344,3.498981 -6.47861,7.723511 -4.27535,12.209372 0.50485,3.495474 1.96607,10.573883 7.97774,7.721918 z m -0.0468,-3.471312 c -5.64746,-1.338433 -5.89176,-7.473371 -3.77374,-11.255392 1.66871,-5.475246 10.3288,-6.244388 12.13067,-0.387773 2.83919,3.904701 0.88043,9.066609 -3.76231,11.178957 -1.38511,0.665783 -3.06313,0.798862 -4.59462,0.464208 z m 4.39131,-3.291926 c 3.67547,-2.542339 2.13203,-11.610737 -3.722,-8.871999 -1.94176,2.185066 0.56358,3.165851 2.40571,2.081823 4.79661,3.001947 -8.82099,5.515582 -1.93548,7.453432 1.12667,0.08241 2.30983,-0.104378 3.25177,-0.663256 z m 24.8127,6.767206 c 1.66823,-2.848375 0.19739,-8.790936 -2.49384,-3.580538 -0.73786,1.489168 -0.19934,5.384988 2.49384,3.580538 z M 43.372597,25.775177 c 6.44239,-2.856831 -5.43387,-10.368366 -6.32,-3.112781 -0.86978,3.078527 3.59655,4.686994 6.32,3.112781 z m -18.12482,36.488015 c -2.96301,-2.218647 1.74232,-5.36405 2.02963,-1.357357 0.59583,1.668746 -0.57368,4.200818 -2.02963,1.357357 z"/>
</g>
</g>
</svg>